<svg width="344" height="266" viewBox="0 0 344 266" fill="none" xmlns="http://www.w3.org/2000/svg">
<path d="M340.87 158.86C334.94 142.33 325.61 137.3 316.73 126.69C305.88 113.74 298.57 104.33 301.38 87.69C305.98 60.47 307.95 -7.40998 235.9 1.47002C210.07 4.65002 189.66 24.47 174.81 44.19C162.18 61 139.45 62.49 121.16 66.41C98.6801 71.22 75.7901 78.5 55.0001 89.15C12.1701 111.15 -0.619914 142.66 1.13009 183.03C1.65009 195.23 3.38009 214.44 23.9801 236.92C51.8001 267.27 92.2101 271.33 140.85 257.4C151.98 254.21 162.51 249.2 173.46 245.4C184.849 241.478 196.66 238.914 208.65 237.76C236.59 235.05 265.55 239.94 292.35 231.6C306.589 227.148 319.466 219.159 329.78 208.38C342.58 195 347.13 176.3 340.87 158.86Z" fill="#EAE6FF"/>
<path d="M24.0001 221.13C24.0001 225.13 74.6001 228.36 137 228.36C199.4 228.36 250 225.12 250 221.13C250 217.14 199.4 213.91 137 213.91C74.6001 213.91 24.0001 217.14 24.0001 221.13Z" fill="#CDCCFF"/>
<path d="M93.0001 230.05C93.0001 232.55 80.1501 234.57 64.3101 234.57C48.4701 234.57 35.6201 232.57 35.6201 230.05C35.6201 227.53 48.4601 225.53 64.3101 225.53C80.1601 225.53 93.0001 227.55 93.0001 230.05Z" fill="#CDCCFF"/>
<path d="M283.81 234.57C310.397 234.57 331.95 232.967 331.95 230.99C331.95 229.013 310.397 227.41 283.81 227.41C257.223 227.41 235.67 229.013 235.67 230.99C235.67 232.967 257.223 234.57 283.81 234.57Z" fill="#CDCCFF"/>
<path d="M35.2701 171.53L33.4202 197.42H58.1201L56.4102 171.48L35.2701 171.53Z" fill="#D7D7FF"/>
<path d="M40.1702 173.8C40.1905 173.595 40.2891 173.405 40.4456 173.271C40.6021 173.137 40.8044 173.069 41.0102 173.08C41.1148 173.062 41.2219 173.068 41.3242 173.096C41.4264 173.124 41.5213 173.174 41.6023 173.243C41.6832 173.311 41.7482 173.397 41.7928 173.493C41.8375 173.589 41.8606 173.694 41.8606 173.8C41.8606 173.906 41.8375 174.011 41.7928 174.107C41.7482 174.203 41.6832 174.289 41.6023 174.357C41.5213 174.426 41.4264 174.476 41.3242 174.504C41.2219 174.532 41.1148 174.537 41.0102 174.52C40.8038 174.534 40.6002 174.466 40.4431 174.332C40.286 174.197 40.188 174.006 40.1702 173.8ZM41.0102 173.36C40.8767 173.346 40.7429 173.383 40.6367 173.465C40.5304 173.547 40.46 173.667 40.4402 173.8C40.46 173.933 40.5304 174.053 40.6367 174.135C40.7429 174.217 40.8767 174.254 41.0102 174.24C41.0789 174.261 41.1516 174.265 41.2225 174.253C41.2933 174.241 41.3603 174.212 41.4181 174.17C41.4758 174.127 41.5228 174.071 41.5551 174.007C41.5875 173.943 41.6043 173.872 41.6043 173.8C41.6043 173.728 41.5875 173.657 41.5551 173.593C41.5228 173.529 41.4758 173.473 41.4181 173.43C41.3603 173.388 41.2933 173.359 41.2225 173.347C41.1516 173.334 41.0789 173.339 41.0102 173.36Z" fill="#EAE6FF"/>
<path d="M48.5901 173.78C48.593 173.608 48.6609 173.444 48.7801 173.32C48.9556 173.155 49.189 173.065 49.4301 173.07C49.6366 173.053 49.8413 173.118 50.0003 173.251C50.1593 173.384 50.2598 173.574 50.2801 173.78C50.2793 173.881 50.2555 173.98 50.2104 174.07C50.1654 174.16 50.1002 174.239 50.0201 174.3C49.8566 174.433 49.651 174.504 49.4401 174.5C49.232 174.517 49.0258 174.45 48.8666 174.315C48.7073 174.18 48.6079 173.988 48.5901 173.78ZM49.4301 173.34C49.2635 173.335 49.1017 173.396 48.9801 173.51C48.9431 173.545 48.9134 173.586 48.8928 173.633C48.8722 173.679 48.861 173.729 48.8601 173.78C48.8776 173.915 48.947 174.037 49.0535 174.121C49.16 174.205 49.2951 174.244 49.4301 174.23C49.5822 174.224 49.7289 174.172 49.8501 174.08C49.8977 174.045 49.9368 174 49.9645 173.948C49.9922 173.896 50.0078 173.839 50.0101 173.78C49.9879 173.646 49.9154 173.526 49.8076 173.445C49.6997 173.363 49.5647 173.325 49.4301 173.34Z" fill="#EAE6FF"/>
<path d="M45.0001 179H45.24C45.8974 179.022 46.5517 178.901 47.1578 178.646C47.7638 178.39 48.3071 178.006 48.7501 177.52C49.5615 176.438 49.9201 175.082 49.7501 173.74C49.7394 173.668 49.7008 173.604 49.6427 173.561C49.5846 173.518 49.5117 173.499 49.4401 173.51C49.3684 173.521 49.304 173.559 49.2609 173.617C49.2177 173.676 49.1994 173.748 49.21 173.82C49.3551 175.008 49.0482 176.208 48.3501 177.18C47.9528 177.603 47.4698 177.936 46.9334 178.156C46.3971 178.377 45.8197 178.481 45.24 178.46C44.6971 178.527 44.1459 178.473 43.6268 178.3C43.1078 178.127 42.6339 177.84 42.24 177.46C41.4969 176.428 41.1751 175.151 41.34 173.89C41.3486 173.817 41.3282 173.744 41.2833 173.686C41.2385 173.628 41.1727 173.59 41.1001 173.58C41.0287 173.571 40.9568 173.59 40.8991 173.633C40.8414 173.676 40.8024 173.739 40.7901 173.81C40.5921 175.223 40.9507 176.657 41.7901 177.81C42.2074 178.229 42.7104 178.552 43.2645 178.757C43.8187 178.962 44.4108 179.045 45.0001 179Z" fill="#EAE6FF"/>
<path d="M46.8801 178.79L43.9301 198.03L70.7401 197.97L68.0301 178.74L46.8801 178.79Z" fill="#BDC6F9"/>
<path d="M37.0001 211.28C35.9241 211.28 34.8724 211.599 33.9778 212.197C33.0832 212.795 32.3859 213.644 31.9742 214.638C31.5624 215.632 31.4547 216.726 31.6646 217.781C31.8745 218.837 32.3926 219.806 33.1534 220.567C33.9142 221.327 34.8835 221.846 35.9388 222.056C36.994 222.265 38.0878 222.158 39.0819 221.746C40.0759 221.334 40.9255 220.637 41.5233 219.742C42.121 218.848 42.4401 217.796 42.4401 216.72C42.4374 215.278 41.8634 213.896 40.8438 212.876C39.8242 211.857 38.442 211.283 37.0001 211.28ZM37.0001 219.28C36.5001 219.278 36.0119 219.128 35.5972 218.849C35.1825 218.57 34.8598 218.174 34.6698 217.711C34.4798 217.249 34.4312 216.74 34.5299 216.25C34.6287 215.76 34.8704 215.31 35.2246 214.958C35.5788 214.605 36.0297 214.365 36.5201 214.268C37.0106 214.171 37.5189 214.222 37.9806 214.414C38.4423 214.605 38.8368 214.93 39.1144 215.345C39.3919 215.761 39.5401 216.25 39.5401 216.75C39.5375 217.081 39.4697 217.408 39.3406 217.713C39.2115 218.018 39.0237 218.294 38.7878 218.526C38.552 218.758 38.2727 218.942 37.966 219.066C37.6592 219.19 37.331 219.253 37.0001 219.25V219.28Z" fill="#8784EF"/>
<path d="M36.0601 211.28C34.9842 211.28 33.9324 211.599 33.0378 212.197C32.1432 212.795 31.446 213.644 31.0342 214.638C30.6225 215.632 30.5147 216.726 30.7246 217.781C30.9346 218.837 31.4527 219.806 32.2135 220.567C32.9743 221.327 33.9436 221.846 34.9988 222.056C36.0541 222.265 37.1479 222.158 38.1419 221.746C39.1359 221.334 39.9856 220.637 40.5833 219.742C41.1811 218.848 41.5001 217.796 41.5001 216.72C41.4975 215.278 40.9235 213.896 39.9039 212.876C38.8843 211.857 37.5021 211.283 36.0601 211.28ZM36.0601 219.28C35.5597 219.28 35.0706 219.132 34.6545 218.854C34.2385 218.576 33.9142 218.181 33.7227 217.718C33.5312 217.256 33.4811 216.747 33.5787 216.256C33.6764 215.766 33.9173 215.315 34.2712 214.961C34.625 214.607 35.0758 214.366 35.5665 214.269C36.0573 214.171 36.566 214.221 37.0283 214.413C37.4906 214.604 37.8857 214.928 38.1637 215.344C38.4417 215.761 38.5901 216.25 38.5901 216.75C38.5822 217.416 38.3122 218.052 37.8386 218.52C37.365 218.988 36.726 219.25 36.0601 219.25V219.28Z" fill="#9AA3F4"/>
<path d="M67.6801 211.28C66.6042 211.28 65.5524 211.599 64.6578 212.197C63.7632 212.795 63.066 213.644 62.6542 214.638C62.2425 215.632 62.1347 216.726 62.3446 217.781C62.5545 218.837 63.0727 219.806 63.8335 220.567C64.5943 221.327 65.5636 221.846 66.6188 222.056C67.6741 222.265 68.7679 222.158 69.7619 221.746C70.756 221.334 71.6056 220.637 72.2033 219.742C72.8011 218.848 73.1201 217.796 73.1201 216.72C73.1201 215.277 72.547 213.894 71.5268 212.873C70.5066 211.853 69.1229 211.28 67.6801 211.28ZM67.6801 219.28C67.1797 219.28 66.6906 219.132 66.2745 218.854C65.8585 218.576 65.5342 218.181 65.3427 217.718C65.1512 217.256 65.1011 216.747 65.1987 216.256C65.2964 215.766 65.5373 215.315 65.8912 214.961C66.245 214.607 66.6958 214.366 67.1866 214.269C67.6773 214.171 68.186 214.221 68.6483 214.413C69.1106 214.604 69.5058 214.928 69.7838 215.344C70.0618 215.761 70.2101 216.25 70.2101 216.75C70.2022 217.416 69.9322 218.052 69.4586 218.52C68.985 218.988 68.346 219.25 67.6801 219.25V219.28Z" fill="#8784EF"/>
<path d="M66.7801 211.28C65.7042 211.28 64.6524 211.599 63.7578 212.197C62.8632 212.795 62.1659 213.644 61.7542 214.638C61.3424 215.632 61.2347 216.726 61.4446 217.781C61.6545 218.837 62.1727 219.806 62.9334 220.567C63.6942 221.327 64.6636 221.846 65.7188 222.056C66.7741 222.265 67.8679 222.158 68.8619 221.746C69.8559 221.334 70.7055 220.637 71.3033 219.742C71.901 218.848 72.2201 217.796 72.2201 216.72C72.2175 215.278 71.6435 213.896 70.6238 212.876C69.6042 211.857 68.2221 211.283 66.7801 211.28ZM66.7801 219.28C66.2801 219.278 65.792 219.128 65.3772 218.849C64.9625 218.57 64.6398 218.174 64.4498 217.711C64.2599 217.249 64.2112 216.74 64.3099 216.25C64.4087 215.76 64.6504 215.31 65.0046 214.958C65.3589 214.605 65.8097 214.365 66.3002 214.268C66.7907 214.171 67.2989 214.222 67.7606 214.414C68.2223 214.605 68.6169 214.93 68.8944 215.345C69.172 215.761 69.3201 216.25 69.3201 216.75C69.3175 217.081 69.2497 217.408 69.1206 217.713C68.9916 218.018 68.8037 218.294 68.5679 218.526C68.332 218.758 68.0528 218.942 67.746 219.066C67.4393 219.19 67.111 219.253 66.7801 219.25V219.28Z" fill="#9AA3F4"/>
<path d="M108.72 150.24H92.38C91.5354 150.243 90.7054 150.461 89.9674 150.872C89.2295 151.283 88.6077 151.874 88.16 152.59L78.28 168.44" stroke="#9AA3F4" stroke-width="1.5" stroke-miterlimit="10"/>
<path d="M34.38 197.59H70.89C71.829 197.582 72.7352 197.244 73.45 196.635C74.1649 196.027 74.6428 195.186 74.8 194.26L78.58 170.69C78.6643 170.125 78.6266 169.548 78.4694 168.999C78.3123 168.45 78.0392 167.941 77.6688 167.506C77.2983 167.071 76.839 166.72 76.3217 166.478C75.8045 166.235 75.2413 166.107 74.67 166.1H30.6C30.0288 166.107 29.4656 166.235 28.9483 166.478C28.431 166.72 27.9717 167.071 27.6013 167.506C27.2308 167.941 26.9578 168.45 26.8006 168.999C26.6434 169.548 26.6057 170.125 26.69 170.69L30.47 194.26C30.6273 195.186 31.1052 196.027 31.82 196.635C32.5349 197.244 33.4411 197.582 34.38 197.59Z" stroke="#9AA3F4" stroke-width="1.5" stroke-miterlimit="10"/>
<path d="M52.6401 166.1V197.59" stroke="#9AA3F4" stroke-width="1.5" stroke-miterlimit="10"/>
<path d="M76.7901 181.85H28.4801" stroke="#9AA3F4" stroke-width="1.5" stroke-miterlimit="10"/>
<path d="M67.0601 166.1L63.9301 197.59" stroke="#9AA3F4" stroke-width="1.5" stroke-miterlimit="10"/>
<path d="M38.9401 166.1L41.8201 197.59" stroke="#9AA3F4" stroke-width="1.5" stroke-miterlimit="10"/>
<path d="M73.9401 196.16L79.8501 204.96C80.2153 205.503 80.4257 206.135 80.4589 206.788C80.492 207.441 80.3465 208.091 80.0381 208.668C79.7296 209.244 79.2699 209.726 78.7082 210.061C78.1465 210.397 77.5042 210.572 76.8501 210.57H28.4801" stroke="#9AA3F4" stroke-width="1.5" stroke-miterlimit="10"/>
<path d="M201.09 200.34H151V213.81H201.09V200.34Z" fill="#4A41A3"/>
<path d="M253.74 79.8201H98.8801C93.6942 79.8201 89.4901 84.0241 89.4901 89.2101V195.35C89.4901 200.536 93.6942 204.74 98.8801 204.74H253.74C258.926 204.74 263.13 200.536 263.13 195.35V89.2101C263.13 84.0241 258.926 79.8201 253.74 79.8201Z" fill="#5851BC"/>
<path d="M251.98 84.37H100.11C96.9234 84.37 94.3401 86.9533 94.3401 90.14V186.98C94.3401 190.167 96.9234 192.75 100.11 192.75H251.98C255.167 192.75 257.75 190.167 257.75 186.98V90.14C257.75 86.9533 255.167 84.37 251.98 84.37Z" fill="#C4C3FC"/>
<path d="M136.8 212.64H215.3C217.241 212.64 219.103 213.411 220.476 214.784C221.849 216.157 222.62 218.019 222.62 219.96V221.13H129.47V220C129.465 219.035 129.651 218.078 130.017 217.184C130.383 216.291 130.922 215.479 131.603 214.795C132.285 214.11 133.095 213.568 133.986 213.198C134.878 212.828 135.835 212.639 136.8 212.64Z" fill="#5851BC"/>
<g opacity="0.35">
<path d="M242.7 91.86H138.38C135.613 91.86 133.37 94.103 133.37 96.87V163.7C133.37 166.467 135.613 168.71 138.38 168.71H242.7C245.467 168.71 247.71 166.467 247.71 163.7V96.87C247.71 94.103 245.467 91.86 242.7 91.86Z" fill="white"/>
</g>
<g style="mix-blend-mode:multiply" opacity="0.25">
<path d="M149.21 148H144.23V160.5H149.21V148Z" fill="#FCA70C"/>
<path d="M160.44 137.02H155.46V160.5H160.44V137.02Z" fill="#B1AFFD"/>
<path d="M171.66 139.45H166.68V160.5H171.66V139.45Z" fill="#FCA70C"/>
<path d="M182.88 127.56H177.9V160.5H182.88V127.56Z" fill="#B1AFFD"/>
<g style="mix-blend-mode:multiply" opacity="0.15">
<path opacity="0.26" d="M157.75 137.02H155.46V160.5H157.75V137.02Z" fill="black"/>
</g>
<g style="mix-blend-mode:multiply" opacity="0.15">
<path opacity="0.26" d="M146.52 148H144.23V160.5H146.52V148Z" fill="black"/>
</g>
<g style="mix-blend-mode:multiply" opacity="0.62">
<path opacity="0.26" d="M180.19 127.56H177.9V160.5H180.19V127.56Z" fill="black"/>
</g>
<g style="mix-blend-mode:multiply" opacity="0.15">
<path opacity="0.26" d="M168.97 139.45H166.68V160.5H168.97V139.45Z" fill="black"/>
</g>
<path d="M185.52 163.94H140.94V116.48H141.62V163.26H185.52V163.94Z" fill="#D5DBDA"/>
<path d="M145.52 142.14L145.07 141.64L156.73 131.17L167.53 133.51L179.22 120.49L179.73 120.95L167.77 134.26L156.92 131.9L145.52 142.14Z" fill="#D5DBDA"/>
<path d="M180.64 122.87L177.35 119.71L181.61 118.57L180.64 122.87Z" fill="#D5DBDA"/>
<path d="M193.16 147.11H189.74V150.53H193.16V147.11Z" fill="#B1AFFD"/>
<path d="M193.16 153.1H189.74V156.52H193.16V153.1Z" fill="#FCA70C"/>
<path d="M204.94 154.58H194.1V156.52H204.94V154.58Z" fill="#EFEFEF"/>
<path d="M204.94 148.59H194.1V150.53H204.94V148.59Z" fill="#EFEFEF"/>
<path d="M213.27 147.11H209.85V150.53H213.27V147.11Z" fill="#B1AFFD"/>
<path d="M213.27 153.1H209.85V156.52H213.27V153.1Z" fill="#FCA70C"/>
<path d="M225.06 154.58H214.22V156.52H225.06V154.58Z" fill="#EFEFEF"/>
<path d="M225.06 148.59H214.22V150.53H225.06V148.59Z" fill="#EFEFEF"/>
<path d="M231.39 147.11H227.97V150.53H231.39V147.11Z" fill="#B1AFFD"/>
<path d="M231.39 153.1H227.97V156.52H231.39V153.1Z" fill="#FCA70C"/>
<path d="M239.46 154.58H232.33V156.52H239.46V154.58Z" fill="#EFEFEF"/>
<path d="M239.46 148.59H232.33V150.53H239.46V148.59Z" fill="#EFEFEF"/>
<path d="M239.46 114.43H190.38V115.32H239.46V114.43Z" fill="#EFEFEF"/>
<path d="M239.46 103.48H140.94V105.52H239.46V103.48Z" fill="#EFEFEF"/>
<path d="M239.46 117.21H190.23V118.1H239.46V117.21Z" fill="#EFEFEF"/>
<path d="M239.46 111.66H190.23V112.55H239.46V111.66Z" fill="#EFEFEF"/>
<path d="M239.46 119.98H190.23V120.87H239.46V119.98Z" fill="#EFEFEF"/>
<path d="M239.46 122.76H190.23V123.65H239.46V122.76Z" fill="#EFEFEF"/>
<path d="M239.46 125.53H190.23V126.42H239.46V125.53Z" fill="#EFEFEF"/>
<path d="M239.46 128.31H190.23V129.2H239.46V128.31Z" fill="#EFEFEF"/>
<path d="M239.46 131.08H190.23V131.97H239.46V131.08Z" fill="#EFEFEF"/>
<path d="M239.46 133.86H190.23V134.75H239.46V133.86Z" fill="#EFEFEF"/>
<path d="M239.46 136.63H196.26V137.52H239.46V136.63Z" fill="#EFEFEF"/>
<path d="M242.69 91.86H138.38C137.054 91.86 135.782 92.3868 134.845 93.3245C133.907 94.2621 133.38 95.5339 133.38 96.86V101.24H247.7V96.86C247.7 96.2025 247.57 95.5516 247.319 94.9443C247.067 94.337 246.697 93.7853 246.232 93.3209C245.767 92.8565 245.214 92.4884 244.607 92.2377C243.999 91.987 243.348 91.8587 242.69 91.86Z" fill="#7A7AE5"/>
<path d="M233 96.73C233 97.0168 232.915 97.2972 232.756 97.5356C232.596 97.7741 232.37 97.9599 232.105 98.0697C231.84 98.1794 231.548 98.2081 231.267 98.1522C230.986 98.0962 230.728 97.9581 230.525 97.7553C230.322 97.5526 230.184 97.2942 230.128 97.0129C230.072 96.7316 230.101 96.4401 230.21 96.1751C230.32 95.9102 230.506 95.6837 230.745 95.5244C230.983 95.3651 231.263 95.28 231.55 95.28C231.935 95.28 232.303 95.4328 232.575 95.7047C232.847 95.9767 233 96.3455 233 96.73Z" fill="#CFCFFF"/>
<path d="M237.44 98.17C238.235 98.17 238.88 97.5253 238.88 96.73C238.88 95.9348 238.235 95.29 237.44 95.29C236.645 95.29 236 95.9348 236 96.73C236 97.5253 236.645 98.17 237.44 98.17Z" fill="#CFCFFF"/>
<path d="M243.33 98.17C244.125 98.17 244.77 97.5253 244.77 96.73C244.77 95.9348 244.125 95.29 243.33 95.29C242.535 95.29 241.89 95.9348 241.89 96.73C241.89 97.5253 242.535 98.17 243.33 98.17Z" fill="#CFCFFF"/>
</g>
<g style="mix-blend-mode:multiply" opacity="0.55">
<path d="M212.32 108.86H108C105.233 108.86 102.99 111.103 102.99 113.87V180.7C102.99 183.467 105.233 185.71 108 185.71H212.32C215.087 185.71 217.33 183.467 217.33 180.7V113.87C217.33 111.103 215.087 108.86 212.32 108.86Z" fill="#C4C3FC"/>
</g>
<path d="M214.64 105.86H110.32C107.553 105.86 105.31 108.103 105.31 110.87V177.7C105.31 180.467 107.553 182.71 110.32 182.71H214.64C217.407 182.71 219.65 180.467 219.65 177.7V110.87C219.65 108.103 217.407 105.86 214.64 105.86Z" fill="white"/>
<path d="M121.16 162H116.18V174.5H121.16V162Z" fill="#FCA70C"/>
<path d="M132.38 151.03H127.4V174.51H132.38V151.03Z" fill="#B1AFFD"/>
<path d="M143.61 153.46H138.63V174.51H143.61V153.46Z" fill="#FCA70C"/>
<path d="M154.83 141.57H149.85V174.51H154.83V141.57Z" fill="#B1AFFD"/>
<g style="mix-blend-mode:multiply" opacity="0.15">
<path opacity="0.26" d="M129.69 151.03H127.4V174.51H129.69V151.03Z" fill="black"/>
</g>
<g style="mix-blend-mode:multiply" opacity="0.15">
<path opacity="0.26" d="M118.47 162H116.18V174.5H118.47V162Z" fill="black"/>
</g>
<g style="mix-blend-mode:multiply" opacity="0.62">
<path opacity="0.26" d="M152.14 141.57H149.85V174.51H152.14V141.57Z" fill="black"/>
</g>
<g style="mix-blend-mode:multiply" opacity="0.15">
<path opacity="0.26" d="M140.92 153.46H138.63V174.51H140.92V153.46Z" fill="black"/>
</g>
<path d="M157.46 177.95H112.89V134.73H113.57V177.27H157.46V177.95Z" fill="#D5DBDA"/>
<path d="M117.47 156.15L117.01 155.64L128.68 145.17L139.48 147.52L151.17 134.5L151.68 134.95L139.72 148.27L128.87 145.91L117.47 156.15Z" fill="#D5DBDA"/>
<path d="M152.59 136.88L149.3 133.71L153.55 132.58L152.59 136.88Z" fill="#D5DBDA"/>
<path d="M165.11 161.12H161.69V164.54H165.11V161.12Z" fill="#B1AFFD"/>
<path d="M165.11 167.11H161.69V170.53H165.11V167.11Z" fill="#FCA70C"/>
<path d="M176.89 168.59H166.05V170.53H176.89V168.59Z" fill="#EFEFEF"/>
<path d="M176.89 162.59H166.05V164.53H176.89V162.59Z" fill="#EFEFEF"/>
<path d="M185.22 161.12H181.8V164.54H185.22V161.12Z" fill="#B1AFFD"/>
<path d="M185.22 167.11H181.8V170.53H185.22V167.11Z" fill="#FCA70C"/>
<path d="M197 168.59H186.16V170.53H197V168.59Z" fill="#EFEFEF"/>
<path d="M197 162.59H186.16V164.53H197V162.59Z" fill="#EFEFEF"/>
<path d="M203.33 161.12H199.91V164.54H203.33V161.12Z" fill="#B1AFFD"/>
<path d="M203.33 167.11H199.91V170.53H203.33V167.11Z" fill="#FCA70C"/>
<path d="M211.41 168.59H204.28V170.53H211.41V168.59Z" fill="#EFEFEF"/>
<path d="M211.41 162.59H204.28V164.53H211.41V162.59Z" fill="#EFEFEF"/>
<path d="M211.41 128.44H162.33V129.33H211.41V128.44Z" fill="#EFEFEF"/>
<path d="M211.41 117.48H112.89V119.52H211.41V117.48Z" fill="#EFEFEF"/>
<path d="M211.41 131.21H162.18V132.1H211.41V131.21Z" fill="#EFEFEF"/>
<path d="M211.41 125.66H162.18V126.55H211.41V125.66Z" fill="#EFEFEF"/>
<path d="M211.41 133.99H162.18V134.88H211.41V133.99Z" fill="#EFEFEF"/>
<path d="M211.41 136.76H162.18V137.65H211.41V136.76Z" fill="#EFEFEF"/>
<path d="M211.41 139.54H162.18V140.43H211.41V139.54Z" fill="#EFEFEF"/>
<path d="M211.41 142.31H162.18V143.2H211.41V142.31Z" fill="#EFEFEF"/>
<path d="M211.41 145.09H162.18V145.98H211.41V145.09Z" fill="#EFEFEF"/>
<path d="M211.41 147.86H162.18V148.75H211.41V147.86Z" fill="#EFEFEF"/>
<path d="M211.41 150.64H168.21V151.53H211.41V150.64Z" fill="#EFEFEF"/>
<path d="M214.64 105.86H110.32C108.994 105.86 107.722 106.387 106.785 107.324C105.847 108.262 105.32 109.534 105.32 110.86V115.25H219.65V110.86C219.65 110.203 219.52 109.552 219.268 108.944C219.017 108.337 218.647 107.785 218.182 107.321C217.717 106.856 217.164 106.488 216.557 106.238C215.949 105.987 215.298 105.859 214.64 105.86Z" fill="#A4A4F7"/>
<path d="M204.94 110.73C204.94 111.015 204.856 111.293 204.697 111.53C204.539 111.767 204.314 111.951 204.051 112.06C203.788 112.169 203.498 112.198 203.219 112.142C202.94 112.087 202.683 111.95 202.482 111.748C202.28 111.547 202.143 111.29 202.088 111.011C202.032 110.732 202.061 110.442 202.17 110.179C202.279 109.916 202.463 109.691 202.7 109.533C202.937 109.375 203.215 109.29 203.5 109.29C203.882 109.29 204.248 109.442 204.518 109.712C204.788 109.982 204.94 110.348 204.94 110.73Z" fill="#CFCFFF"/>
<path d="M210.83 110.73C210.832 111.018 210.748 111.299 210.59 111.539C210.431 111.779 210.205 111.967 209.94 112.078C209.674 112.189 209.382 112.218 209.1 112.163C208.817 112.107 208.558 111.969 208.355 111.765C208.151 111.562 208.013 111.303 207.957 111.02C207.902 110.738 207.931 110.446 208.042 110.181C208.153 109.915 208.341 109.689 208.581 109.53C208.821 109.372 209.102 109.288 209.39 109.29C209.579 109.29 209.766 109.327 209.941 109.4C210.116 109.472 210.275 109.578 210.408 109.712C210.542 109.846 210.648 110.004 210.72 110.179C210.793 110.354 210.83 110.541 210.83 110.73Z" fill="#CFCFFF"/>
<path d="M216.72 110.73C216.722 111.018 216.638 111.299 216.48 111.539C216.321 111.779 216.095 111.967 215.83 112.078C215.564 112.189 215.272 112.218 214.99 112.163C214.707 112.107 214.448 111.969 214.245 111.765C214.041 111.562 213.903 111.303 213.847 111.02C213.792 110.738 213.821 110.446 213.932 110.181C214.043 109.915 214.231 109.689 214.471 109.53C214.711 109.372 214.992 109.288 215.28 109.29C215.661 109.293 216.026 109.445 216.295 109.715C216.565 109.984 216.717 110.349 216.72 110.73Z" fill="#CFCFFF"/>
<g style="mix-blend-mode:multiply" opacity="0.35">
<path d="M253.23 79.8999H226.46C226.64 88.5666 226.787 97.2333 226.9 105.9C226.991 107.229 226.824 108.564 226.41 109.83C226.06 109.83 226.22 109.92 226.09 110.55C225.467 111.402 224.682 112.123 223.779 112.671C222.876 113.218 221.874 113.582 220.83 113.74C220.805 113.835 220.805 113.935 220.83 114.03C220.71 114.122 220.625 114.253 220.589 114.4C220.552 114.547 220.567 114.702 220.63 114.84C220.75 115.13 222.29 115.52 224.38 115.29C225.177 115.173 225.956 114.958 226.7 114.65C227.011 114.496 227.3 114.301 227.56 114.07C227.827 114.042 228.09 113.978 228.34 113.88L228.42 113.96L230.82 112.96C230.82 112.96 230.56 111.45 230.35 110.66C230.315 110.53 230.261 110.405 230.19 110.29C232.198 104.854 233.77 99.2659 234.89 93.58C234.46 100.58 231.89 114.96 231.74 115.45C231.468 116.046 231.042 116.558 230.506 116.934C229.97 117.311 229.343 117.537 228.69 117.59C228.12 117.64 225.33 117.48 225.69 118.76C225.76 119.07 227.2 119.76 229.3 119.86C230.106 119.879 230.912 119.801 231.7 119.63C232.243 119.456 232.749 119.181 233.19 118.82L233.51 119.25L236.05 118.64C236.05 118.64 236.05 117.97 236.05 117.18C236.009 116.625 235.823 116.09 235.51 115.63V114.18L236.91 114.02C236.91 114.02 239.74 104.87 241.08 101.76C241.689 100.502 242.197 99.198 242.6 97.8599C242.942 96.2576 243.14 94.6277 243.19 92.99C243.422 90.0042 243.969 87.0512 244.82 84.1799C244.867 83.9963 244.949 83.8233 245.06 83.6699C245.32 83.4518 245.651 83.3378 245.99 83.35C249.59 83.02 251.24 83.6299 253.49 82.9299C256.49 82.0099 256.77 80.66 256.92 80.6C255.749 80.1218 254.495 79.8838 253.23 79.8999Z" fill="#5851BC"/>
</g>
<g style="mix-blend-mode:multiply" opacity="0.35">
<path d="M263.13 139.83V108.83C258.5 114.89 253.92 120.33 249.28 126.39C247.28 129.02 239.41 137.73 244.77 141.23C246.14 142.12 248.53 142.08 249.77 142.16C254.05 142.47 258.3 141.28 262.46 140.1C262.65 140 262.89 139.91 263.13 139.83Z" fill="#5851BC"/>
</g>
<g style="mix-blend-mode:multiply" opacity="0.35">
<path d="M263.13 146.51L260.55 146.71V146.57L258.55 146.72L257.94 145.01C257.737 144.513 257.384 144.092 256.931 143.806C256.477 143.519 255.946 143.381 255.41 143.41C255.181 143.408 254.956 143.464 254.753 143.571C254.551 143.678 254.379 143.834 254.252 144.024C254.125 144.215 254.047 144.434 254.026 144.662C254.005 144.89 254.041 145.119 254.13 145.33C254.24 145.62 254.53 146.45 254.73 147.02L252.62 147.18V147.33L248.28 147.66C247.59 147.66 246.57 148.55 246.79 149.17V149.27C246.786 149.323 246.786 149.377 246.79 149.43L250.6 160L250.51 204.7H254.87L263.13 172.59V146.51ZM256.34 146.18C256.04 146.197 255.743 146.119 255.49 145.958C255.237 145.796 255.041 145.559 254.93 145.28C254.878 145.162 254.857 145.034 254.868 144.906C254.878 144.778 254.921 144.654 254.992 144.547C255.062 144.44 255.158 144.352 255.272 144.291C255.385 144.23 255.512 144.199 255.64 144.2C255.942 144.186 256.241 144.266 256.495 144.429C256.749 144.592 256.947 144.83 257.06 145.11C257.11 145.228 257.13 145.356 257.117 145.484C257.105 145.611 257.061 145.734 256.99 145.84C256.918 145.946 256.822 146.033 256.708 146.092C256.595 146.152 256.468 146.182 256.34 146.18Z" fill="#5851BC"/>
</g>
<g style="mix-blend-mode:multiply" opacity="0.35">
<path d="M100.41 128.1C99.3813 129.438 98.5121 130.891 97.8201 132.43C97.3332 133.438 96.4721 134.217 95.4201 134.6C93.5101 135.47 91.4201 136.31 89.4901 137.08V142.15C93.4901 139.74 97.1101 137.5 97.1701 137.48C100.23 138.65 102.79 136.1 103.61 134.27C103.98 133.45 103.42 133.11 103.4 132.72C103.4 132.52 103.65 131.33 103.61 131.17C103.37 130.1 100.49 131.04 100.73 130.53C100.94 129.826 101.359 129.202 101.93 128.74C103.34 127.74 104.42 126.74 104.42 126.31C104.42 125.61 100.74 127.73 100.41 128.1Z" fill="#5851BC"/>
</g>
<path d="M315.87 153.87H262.26C258.422 153.87 255.31 156.982 255.31 160.82V224.99C255.31 228.828 258.422 231.94 262.26 231.94H315.87C319.708 231.94 322.82 228.828 322.82 224.99V160.82C322.82 156.982 319.708 153.87 315.87 153.87Z" fill="#A2A7F4"/>
<path d="M316.88 162.04H263.33C262.353 162.04 261.56 162.832 261.56 163.81V176.31C261.56 177.288 262.353 178.08 263.33 178.08H316.88C317.858 178.08 318.65 177.288 318.65 176.31V163.81C318.65 162.832 317.858 162.04 316.88 162.04Z" fill="#9090F4"/>
<path d="M274.47 183.76H263.33C262.353 183.76 261.56 184.552 261.56 185.53V192.17C261.56 193.148 262.353 193.94 263.33 193.94H274.47C275.448 193.94 276.24 193.148 276.24 192.17V185.53C276.24 184.552 275.448 183.76 274.47 183.76Z" fill="#9090F4"/>
<path d="M295.67 183.76H284.53C283.553 183.76 282.76 184.552 282.76 185.53V192.17C282.76 193.148 283.553 193.94 284.53 193.94H295.67C296.648 193.94 297.44 193.148 297.44 192.17V185.53C297.44 184.552 296.648 183.76 295.67 183.76Z" fill="#9090F4"/>
<path d="M316.88 183.76H305.74C304.763 183.76 303.97 184.552 303.97 185.53V192.17C303.97 193.148 304.763 193.94 305.74 193.94H316.88C317.858 193.94 318.65 193.148 318.65 192.17V185.53C318.65 184.552 317.858 183.76 316.88 183.76Z" fill="#9090F4"/>
<path d="M274.47 200.12H263.33C262.353 200.12 261.56 200.912 261.56 201.89V208.53C261.56 209.508 262.353 210.3 263.33 210.3H274.47C275.448 210.3 276.24 209.508 276.24 208.53V201.89C276.24 200.912 275.448 200.12 274.47 200.12Z" fill="#9090F4"/>
<path d="M295.67 200.12H284.53C283.553 200.12 282.76 200.912 282.76 201.89V208.53C282.76 209.508 283.553 210.3 284.53 210.3H295.67C296.648 210.3 297.44 209.508 297.44 208.53V201.89C297.44 200.912 296.648 200.12 295.67 200.12Z" fill="#9090F4"/>
<path d="M274.47 216.49H263.33C262.353 216.49 261.56 217.282 261.56 218.26V224.9C261.56 225.878 262.353 226.67 263.33 226.67H274.47C275.448 226.67 276.24 225.878 276.24 224.9V218.26C276.24 217.282 275.448 216.49 274.47 216.49Z" fill="#9090F4"/>
<path d="M295.67 216.49H284.53C283.553 216.49 282.76 217.282 282.76 218.26V224.9C282.76 225.878 283.553 226.67 284.53 226.67H295.67C296.648 226.67 297.44 225.878 297.44 224.9V218.26C297.44 217.282 296.648 216.49 295.67 216.49Z" fill="#9090F4"/>
<path d="M316.88 200.12H305.74C304.763 200.12 303.97 200.912 303.97 201.89V224.89C303.97 225.868 304.763 226.66 305.74 226.66H316.88C317.858 226.66 318.65 225.868 318.65 224.89V201.89C318.65 200.912 317.858 200.12 316.88 200.12Z" fill="#9090F4"/>
<g opacity="0.45">
<path d="M260.52 162.77C260.52 162.301 260.707 161.85 261.039 161.518C261.37 161.186 261.821 161 262.29 161H315.84C316.31 161 316.76 161.186 317.092 161.518C317.424 161.85 317.61 162.301 317.61 162.77V175.26C317.61 175.73 317.424 176.182 317.092 176.515C316.761 176.849 316.31 177.037 315.84 177.04H262.29" fill="#E2DEFF"/>
<path d="M273.43 182.72H262.29C261.313 182.72 260.52 183.512 260.52 184.49V191.13C260.52 192.108 261.313 192.9 262.29 192.9H273.43C274.408 192.9 275.2 192.108 275.2 191.13V184.49C275.2 183.512 274.408 182.72 273.43 182.72Z" fill="#E2DEFF"/>
<path d="M294.64 182.72H283.5C282.523 182.72 281.73 183.512 281.73 184.49V191.13C281.73 192.108 282.523 192.9 283.5 192.9H294.64C295.618 192.9 296.41 192.108 296.41 191.13V184.49C296.41 183.512 295.618 182.72 294.64 182.72Z" fill="#E2DEFF"/>
<path d="M315.84 182.72H304.7C303.723 182.72 302.93 183.512 302.93 184.49V191.13C302.93 192.108 303.723 192.9 304.7 192.9H315.84C316.818 192.9 317.61 192.108 317.61 191.13V184.49C317.61 183.512 316.818 182.72 315.84 182.72Z" fill="#E2DEFF"/>
<path d="M273.43 199.09H262.29C261.313 199.09 260.52 199.882 260.52 200.86V207.5C260.52 208.478 261.313 209.27 262.29 209.27H273.43C274.408 209.27 275.2 208.478 275.2 207.5V200.86C275.2 199.882 274.408 199.09 273.43 199.09Z" fill="#E2DEFF"/>
<path d="M294.64 199.09H283.5C282.523 199.09 281.73 199.882 281.73 200.86V207.5C281.73 208.478 282.523 209.27 283.5 209.27H294.64C295.618 209.27 296.41 208.478 296.41 207.5V200.86C296.41 199.882 295.618 199.09 294.64 199.09Z" fill="#E2DEFF"/>
<path d="M273.43 215.45H262.29C261.313 215.45 260.52 216.242 260.52 217.22V223.86C260.52 224.837 261.313 225.63 262.29 225.63H273.43C274.408 225.63 275.2 224.837 275.2 223.86V217.22C275.2 216.242 274.408 215.45 273.43 215.45Z" fill="#E2DEFF"/>
<path d="M294.64 215.45H283.5C282.523 215.45 281.73 216.242 281.73 217.22V223.86C281.73 224.837 282.523 225.63 283.5 225.63H294.64C295.618 225.63 296.41 224.837 296.41 223.86V217.22C296.41 216.242 295.618 215.45 294.64 215.45Z" fill="#E2DEFF"/>
</g>
<path d="M315.84 199.09H304.7C303.723 199.09 302.93 199.882 302.93 200.86V223.86C302.93 224.837 303.723 225.63 304.7 225.63H315.84C316.818 225.63 317.61 224.837 317.61 223.86V200.86C317.61 199.882 316.818 199.09 315.84 199.09Z" fill="#FCA70C"/>
<path d="M304 224.89V201.89C304 201.42 304.186 200.968 304.518 200.635C304.85 200.301 305.3 200.113 305.77 200.11H316.91C317.122 200.114 317.332 200.155 317.53 200.23C317.402 199.893 317.175 199.602 316.879 199.397C316.582 199.191 316.231 199.081 315.87 199.08H304.71C304.24 199.08 303.788 199.266 303.455 199.598C303.121 199.929 302.933 200.38 302.93 200.85V223.85C302.931 224.211 303.043 224.562 303.25 224.858C303.458 225.153 303.751 225.377 304.09 225.5C304.021 225.304 303.99 225.097 304 224.89Z" fill="#F9C110"/>
<g style="mix-blend-mode:multiply" opacity="0.35">
<path d="M255.31 172.28L257.12 177.04H264.69C264.69 177.04 264.16 197.61 264.13 201.47C264.1 205.33 267.3 231.94 267.3 231.94H271.68L271.23 198.39L277.44 181.18C277.44 181.18 282.12 204.18 284.06 208.07C286 211.96 296.41 231.94 296.41 231.94H300.41L290.1 187.81L285.67 172.48L263.33 162L255.33 162.79" fill="#5851BC"/>
</g>
<path d="M104.15 189.37L100.63 225.92L135.29 225.93L131.93 189.31L104.15 189.37Z" fill="#FCA70C"/>
<path d="M110.2 192.72C110.228 192.402 110.38 192.109 110.624 191.903C110.867 191.697 111.182 191.595 111.5 191.62C111.662 191.589 111.829 191.594 111.989 191.635C112.148 191.676 112.297 191.752 112.424 191.857C112.551 191.962 112.654 192.094 112.724 192.243C112.794 192.392 112.831 192.555 112.831 192.72C112.831 192.885 112.794 193.048 112.724 193.197C112.654 193.346 112.551 193.478 112.424 193.583C112.297 193.688 112.148 193.764 111.989 193.805C111.829 193.846 111.662 193.851 111.5 193.82C111.183 193.842 110.869 193.74 110.626 193.534C110.384 193.329 110.231 193.037 110.2 192.72ZM111.5 192.04C111.397 192.015 111.29 192.013 111.186 192.036C111.082 192.058 110.985 192.104 110.902 192.169C110.818 192.235 110.751 192.318 110.704 192.414C110.658 192.509 110.634 192.614 110.634 192.72C110.634 192.826 110.658 192.931 110.704 193.026C110.751 193.121 110.818 193.205 110.902 193.271C110.985 193.336 111.082 193.382 111.186 193.404C111.29 193.427 111.397 193.425 111.5 193.4C111.99 193.4 112.38 193.09 112.38 192.72C112.35 192.515 112.242 192.329 112.078 192.202C111.913 192.075 111.706 192.017 111.5 192.04Z" fill="#5851BC"/>
<path d="M123.11 192.69C123.112 192.557 123.14 192.426 123.194 192.304C123.247 192.182 123.324 192.072 123.42 191.98C123.552 191.851 123.709 191.751 123.881 191.684C124.052 191.617 124.236 191.585 124.42 191.59C124.735 191.568 125.046 191.669 125.287 191.873C125.528 192.076 125.68 192.366 125.71 192.68C125.711 192.834 125.677 192.987 125.609 193.126C125.541 193.265 125.442 193.386 125.32 193.48C125.061 193.676 124.745 193.785 124.42 193.79C124.102 193.812 123.787 193.71 123.543 193.505C123.298 193.3 123.143 193.007 123.11 192.69ZM124.41 192.01C124.155 192.006 123.909 192.099 123.72 192.27C123.662 192.324 123.615 192.388 123.582 192.461C123.55 192.533 123.532 192.611 123.53 192.69C123.565 192.895 123.676 193.079 123.841 193.206C124.006 193.332 124.213 193.391 124.42 193.37C124.649 193.371 124.871 193.293 125.05 193.15C125.125 193.096 125.187 193.026 125.23 192.944C125.273 192.863 125.297 192.772 125.3 192.68C125.266 192.478 125.156 192.296 124.992 192.171C124.829 192.047 124.624 191.989 124.42 192.01H124.41Z" fill="#5851BC"/>
<path d="M117.57 200.71H117.94C118.947 200.741 119.95 200.555 120.878 200.163C121.807 199.771 122.64 199.183 123.32 198.44C124.549 196.772 125.09 194.696 124.83 192.64C124.824 192.585 124.807 192.532 124.78 192.484C124.753 192.436 124.716 192.393 124.672 192.36C124.628 192.326 124.578 192.302 124.524 192.288C124.471 192.274 124.415 192.272 124.36 192.28C124.249 192.297 124.15 192.357 124.083 192.447C124.015 192.537 123.986 192.649 124 192.76C124.224 194.579 123.752 196.414 122.68 197.9C122.077 198.559 121.338 199.079 120.515 199.424C119.691 199.769 118.803 199.932 117.91 199.9C117.072 199.995 116.223 199.899 115.426 199.621C114.63 199.342 113.906 198.887 113.31 198.29C111.46 196.23 111.91 192.85 111.92 192.81C111.926 192.705 111.891 192.601 111.824 192.52C111.756 192.439 111.66 192.386 111.556 192.372C111.451 192.358 111.345 192.384 111.259 192.445C111.173 192.506 111.112 192.597 111.09 192.7C111.09 192.85 110.57 196.5 112.68 198.85C113.312 199.495 114.077 199.995 114.921 200.316C115.765 200.637 116.669 200.772 117.57 200.71Z" fill="#5851BC"/>
<path d="M70.08 107C71.42 109.32 70.26 112.48 71.62 114.79C72.16 115.71 73.08 116.44 73.34 117.48C73.4532 117.921 73.4354 118.385 73.2886 118.816C73.1419 119.247 72.8727 119.626 72.5139 119.906C72.1552 120.186 71.7225 120.356 71.2689 120.394C70.8153 120.432 70.3604 120.337 69.96 120.12C69.795 120.018 69.621 119.931 69.44 119.86C68.77 119.67 68.17 120.26 67.59 120.65C67.2459 120.905 66.8477 121.077 66.4264 121.154C66.005 121.23 65.5717 121.208 65.16 121.09C64.665 120.859 64.2281 120.52 63.8819 120.098C63.5357 119.676 63.289 119.181 63.16 118.65C62.16 115.74 62.88 112.56 63.77 109.65C64.22 108.19 64.88 106.56 66.32 106.03" fill="#5045AF"/>
<path d="M101.24 131.66C101.24 131.98 101.75 132.26 101.42 132.94C100.69 134.45 98.4201 136.55 95.7101 135.58C95.5901 135.58 80.7101 144.22 79.5701 144.22C78.4301 144.22 70.6201 136.84 68.0701 127.7C67.4601 125.52 67.6901 122.95 69.7401 121.85C70.3519 122.058 70.9158 122.386 71.3985 122.815C71.8811 123.245 72.2727 123.767 72.5501 124.35C74.2401 127.54 79.3001 138.11 80.4201 138.51C81.8201 137.58 88.6301 135.51 94.1501 133.21C95.0666 132.91 95.8327 132.269 96.2901 131.42C96.9068 130.142 97.6756 128.943 98.5801 127.85C98.8701 127.55 102.14 125.8 102.14 126.37C102.14 126.7 101.14 127.58 99.9301 128.37C99.4303 128.736 99.0592 129.25 98.8701 129.84C98.6601 130.26 101.21 129.49 101.42 130.38C101.46 130.51 101.22 131.49 101.24 131.66Z" fill="#FFB9B0"/>
<path d="M69.1401 121.58C70.0851 121.798 70.9714 122.218 71.738 122.812C72.5046 123.406 73.1331 124.16 73.5801 125.02C73.8079 125.472 74.0116 125.936 74.1901 126.41C74.9801 128.41 76.0701 130.25 76.8601 132.27C75.7965 133.017 74.6175 133.585 73.3701 133.95C72.3302 134.339 71.216 134.49 70.1101 134.39C69.9213 134.381 69.7354 134.341 69.5601 134.27C69.3395 134.146 69.1458 133.98 68.9901 133.78C68.6501 133.39 68.3201 132.99 67.9901 132.59C67.695 132.259 67.4705 131.871 67.3301 131.45C67.2252 130.857 67.2769 130.247 67.4801 129.68" fill="#7762EF"/>
<g style="mix-blend-mode:multiply" opacity="0.35">
<path d="M71.0901 127.08C71.0203 126.989 70.9316 126.914 70.8301 126.86C70.7277 126.836 70.6204 126.847 70.5247 126.891C70.4289 126.934 70.35 127.007 70.3001 127.1C70.2089 127.293 70.171 127.507 70.1901 127.72C70.2008 128.541 70.3288 129.356 70.5702 130.14L70.3101 134.39C71.3469 134.451 72.3852 134.298 73.3601 133.94C73.8201 133.77 74.3101 133.59 74.8101 133.39C74.3101 131 72.6801 129 71.0901 127.08Z" fill="#7762EF"/>
</g>
<path d="M64.5002 117.36C64.5002 117.36 64.4402 120.02 64.8502 120.19C65.406 120.419 65.9817 120.597 66.5702 120.72V126.23L59.2202 125.12L54.1702 122.31C54.1702 122.31 59.4202 120.57 59.4702 120.05C59.5202 119.53 59.1801 116.58 59.1801 116.58" fill="#FFB9B0"/>
<path d="M53.2101 197.06C51.2101 206.59 52.2101 219.67 51.7101 226.85L54.4401 227.2C54.4401 227.2 60.6501 196.98 61.7801 191.2C61.8543 190.83 61.9044 190.456 61.9301 190.08C62.2001 185.72 58.2701 185.5 56.0601 189.08C55.6773 189.7 55.3429 190.349 55.0601 191.02C54.9301 191.31 54.8101 191.59 54.6901 191.9C54.3017 192.881 53.9678 193.882 53.6901 194.9V195.01C53.6001 195.32 53.5301 195.63 53.4501 195.94V196.01C53.3501 196.41 53.2801 196.73 53.2101 197.06Z" fill="#FFB9B0"/>
<path d="M65.0001 162.87C64.9301 163.66 64.5001 167.41 64.0001 171.87C63.5701 175.59 63.1001 179.79 62.7301 183.11C62.4601 185.6 62.2601 187.58 62.1701 188.52C62.1359 189.061 62.0624 189.599 61.9501 190.13C61.0101 194.48 58.0001 194.73 56.1701 193.72C55.9236 193.589 55.6922 193.432 55.4801 193.25C55.0856 192.921 54.8113 192.471 54.7001 191.97C54.5801 191.07 54.47 189.85 54.36 188.4V188.33C54.14 185.5 53.9501 181.87 53.7901 178.33C53.5901 173.98 53.4601 169.78 53.4301 167.42C53.4301 167.28 53.4301 167.16 53.4301 167.03C53.4301 159.78 60.0601 155.13 64.2001 157.38L64.3501 157.46L64.5001 157.55C64.9801 157.87 65.1301 158.95 65.1401 160.19C65.1001 161.06 65.0001 162.05 65.0001 162.87Z" fill="#FFB9B0"/>
<path d="M54.8401 190.23L54.3301 188.33C54.3635 190.556 54.1522 192.78 53.7001 194.96V195.07C53.6301 195.37 53.5601 195.69 53.4601 196V196.07C53.3581 196.396 53.2845 196.731 53.2401 197.07C53.2401 197.93 55.0701 194.07 55.4901 193.21L55.5701 193.03L55.0801 191.03L54.8401 190.23Z" fill="#FFB9B0"/>
<path d="M69.1901 198.88C69.0001 208.88 72.0801 220.58 72.9001 227.88C73.0001 227.88 75.4101 227.56 75.4101 227.56C75.4101 227.56 75.8701 197 75.9101 190.96C75.9122 190.576 75.8921 190.192 75.8501 189.81C75.3501 185.41 71.7801 186.16 70.4001 190.29C70.1618 191.007 69.9681 191.739 69.8201 192.48C69.7601 192.79 69.7001 193.11 69.6501 193.48C69.4801 194.48 69.3601 195.6 69.2801 196.75V196.87C69.2801 197.19 69.2801 197.52 69.2201 197.87V197.95C69.2067 198.223 69.1967 198.533 69.1901 198.88Z" fill="#FFB9B0"/>
<path d="M71.2701 194.81C71.0241 194.742 70.7886 194.642 70.5701 194.51C70.1418 194.275 69.8145 193.89 69.6501 193.43C69.3901 192.58 69.0801 191.38 68.7301 189.96V189.9C68.0501 187.15 67.2601 183.58 66.5101 180.11C65.6001 175.83 64.7701 171.69 64.3401 169.34L63.9101 167.34C62.6301 160.06 68.3201 155.34 72.4501 156.7L72.6101 156.75C73.4401 157.09 73.6701 160.01 73.8601 161.98C74.0501 163.95 75.4501 184.41 75.8001 188.11C75.8519 188.662 75.8753 189.216 75.8701 189.77C75.7501 194.36 73.0901 195.36 71.2701 194.81Z" fill="#FFB9B0"/>
<path d="M69.5001 191.68L68.7201 189.92C69.1263 192.146 69.3105 194.407 69.2701 196.67V196.79C69.2701 197.1 69.2701 197.44 69.2101 197.79V197.87C69.1846 198.203 69.1846 198.537 69.2101 198.87C69.3501 199.73 70.3501 195.47 70.5801 194.48C70.5801 194.35 70.6301 194.28 70.6301 194.28L69.8401 192.42L69.5001 191.68Z" fill="#FFB9B0"/>
<path d="M56.8402 148.87C56.8402 148.87 51.4902 155.67 52.0402 162.49C52.2602 165.33 52.6202 167.84 52.9402 170.7C52.9902 171.11 53.6302 177.11 53.4502 177.12C53.4502 177.12 64.4501 180.52 75.1101 176.06C75.1101 175.34 75.9601 161.36 70.2101 148.06C65.7789 148.653 61.3105 148.923 56.8402 148.87Z" fill="#5146AF"/>
<path d="M73.5801 133.19C73.5801 135.13 72.5101 136.32 71.0201 137.96C70.5869 140.443 70.3163 142.952 70.2102 145.47C70.1302 146.97 70.7702 147.92 70.2102 148.04C68.0802 149.91 60.3702 151.42 56.8402 148.87C57.2102 145.73 55.8402 138.82 54.8402 135.31C54.7002 134.77 54.5702 134.31 54.4502 133.96C53.5702 131.29 51.9702 122.73 53.1502 122.36L54.1502 122.06C56.0002 121.5 58.7302 120.55 58.7302 120.55C58.7302 120.55 60.3302 125.28 64.4902 125.85C66.7702 124.92 66.5702 122.04 66.5402 120.72C67.2802 120.93 67.6102 121.13 69.9102 121.82C70.5602 122.75 70.0002 124.69 71.0402 127.58C71.3302 128.3 73.6301 130.82 73.5801 133.19Z" fill="#7762EF"/>
<path d="M69.8101 106.48C69.8101 106.48 70.2301 111.63 69.3501 114.33C68.8731 115.422 68.1009 116.359 67.1204 117.035C66.1399 117.712 64.9899 118.101 63.8001 118.16C57.6601 118.16 56.5601 109.82 56.5901 109.41C56.6201 109 65.6501 105.51 65.6501 105.51L69.8101 106.48Z" fill="#FFB9B0"/>
<path d="M81.5101 230.74C79.3201 231.13 76.9901 230.51 76.0301 230.68C75.2401 230.82 73.2001 231.33 72.4401 230.68C71.6801 230.03 71.8001 227.58 72.6801 227.26C72.8664 227.318 73.057 227.362 73.2501 227.39C74.1149 227.517 74.9973 227.445 75.8301 227.18C76.9675 227.802 78.1859 228.263 79.4501 228.55C80.2772 228.707 81.0852 228.951 81.8601 229.28C82.6801 229.62 82.7401 230.51 81.5101 230.74Z" fill="#5045AF"/>
<path d="M57.9001 231.7C55.7101 231.33 54.3201 230.12 53.3701 229.95C52.5801 229.81 50.5801 229.42 50.3701 228.6C50.2201 228 50.8201 225.47 51.7501 225.47C51.9047 225.589 52.0685 225.696 52.2401 225.79C53.019 226.191 53.875 226.419 54.7501 226.46C55.6058 227.432 56.5958 228.277 57.6901 228.97C58.4053 229.402 59.0754 229.904 59.6901 230.47C60.3601 231.1 59.1401 231.91 57.9001 231.7Z" fill="#5045AF"/>
<path d="M26.0001 129.52L28.0001 127.12L40.2801 138.12C40.2801 138.12 46.2801 130.12 47.9201 127.65C49.7301 124.91 51.3701 122.57 54.0201 122.11C54.6301 122.49 53.8101 132.33 53.5001 132.56C49.7901 135.33 42.5801 144.27 40.2901 144.74C37.6201 145.25 26.0001 129.52 26.0001 129.52Z" fill="#FFB9B0"/>
<path d="M54.9101 121.66C54.9101 121.66 52.4001 121.66 51.3201 122.58C50.2401 123.5 45.0901 131.58 45.0901 131.58C45.0897 132.125 45.2117 132.663 45.4471 133.155C45.6825 133.646 46.0253 134.079 46.4501 134.42C47.5174 135.282 48.8005 135.836 50.1601 136.02C50.1601 136.02 52.7401 133.45 54.1601 132.28C55.0701 131.55 55.1601 133.35 55.1601 133.35L59.7201 128.9L54.9101 121.66Z" fill="#7762EF"/>
<path d="M53.3902 121.75L52.9901 121.53C52.2608 121.185 51.6766 120.593 51.3402 119.86C50.841 118.573 50.841 117.147 51.3402 115.86C51.8484 115.17 52.4137 114.525 53.0302 113.93C53.6905 112.934 54.0387 111.765 54.0302 110.57C54.0147 109.385 54.095 108.202 54.2701 107.03C54.6901 105.03 55.2702 103.16 56.7902 101.88C59.2302 99.83 64.1402 98.62 66.7902 100.88C67.2702 101.3 67.3701 101.63 68.0201 101.69C68.8094 101.724 69.5784 101.951 70.2602 102.35C71.1402 102.85 72.2002 103.57 72.0702 104.71C71.8375 105.698 71.2458 106.564 70.4102 107.14C70.1155 107.288 69.7898 107.363 69.4601 107.36C68.4601 107.36 67.5602 106.7 66.5402 106.81C66.2906 106.838 66.0491 106.916 65.8294 107.038C65.6098 107.159 65.4164 107.323 65.2602 107.52C64.8902 107.97 64.9402 108.61 64.5102 109.03C63.8202 109.71 62.7502 109.65 61.9402 110.1C61.7952 110.156 61.6724 110.258 61.5902 110.39C61.5206 110.522 61.4894 110.671 61.5002 110.82L61.4502 112.11C61.0402 111.93 61.0002 111.36 60.6702 111.11C60.4961 110.987 60.2855 110.928 60.0729 110.94C59.8604 110.953 59.6584 111.038 59.5002 111.18C59.1948 111.482 58.9949 111.875 58.9302 112.3C58.8829 112.824 58.9618 113.352 59.1602 113.84C59.4302 114.72 60.1602 115.51 60.7902 114.93C61.2302 115.58 60.7902 116.66 60.7302 117.39C60.7302 117.97 60.7301 119.12 61.2701 119.5C61.8101 119.88 62.5602 119.58 62.5902 120.5C62.5365 120.894 62.3494 121.258 62.0601 121.531C61.7708 121.804 61.3967 121.969 61.0002 122C60.1703 122.023 59.3441 121.88 58.5702 121.58C57.7957 121.273 56.9412 121.23 56.1402 121.46C55.7093 121.71 55.2535 121.914 54.7802 122.07C54.2936 122.13 53.8016 122.016 53.3902 121.75Z" fill="#5045AF"/>
<path d="M31.0901 129.91C31.0901 129.91 28.2001 127.6 28.0001 127C27.8001 126.4 27.7601 125.69 27.5301 125.07C27.348 124.62 27.0771 124.21 26.7335 123.867C26.3899 123.523 25.9806 123.252 25.5301 123.07C24.8101 122.78 25.1601 122.53 24.3901 122.68C23.2201 122.91 22.6701 124.05 22.2001 124.95C20.2001 128.77 25.66 129.49 25.86 129.5C26.25 129.5 28.2801 131.82 28.2801 131.82" fill="#FFB9B0"/>
<path d="M22.0001 128.07L24.0001 129.39C24.0621 129.43 24.1315 129.457 24.2042 129.47C24.2769 129.482 24.3514 129.48 24.4232 129.463C24.4951 129.446 24.5628 129.415 24.6224 129.372C24.682 129.328 24.7322 129.273 24.7701 129.21L29.1101 121.94L26.5301 120.49L21.8701 127.31C21.7878 127.428 21.7553 127.574 21.7796 127.717C21.8039 127.859 21.8831 127.986 22.0001 128.07Z" fill="#8484EF"/>
<path d="M14.9101 112.63L15.5901 113.1L18.3401 109.1L17.6601 108.63C17.1376 108.329 16.518 108.246 15.9344 108.397C15.3509 108.549 14.8502 108.923 14.5401 109.44C14.1685 109.913 13.9989 110.514 14.0682 111.111C14.1375 111.709 14.4401 112.255 14.9101 112.63Z" fill="#C4C4F7"/>
<path d="M12.4001 117.52L25.0501 119.44L27.9402 115.23L21.5501 104.18L12.4001 117.52Z" fill="#C4C4F7"/>
<path d="M13.2101 117.69L25.0501 119.44L26.2001 117.76L16.2301 113.28L13.2101 117.69Z" fill="#BBBBF2"/>
<path d="M30.2501 122.5C30.6167 122.712 31.0522 122.771 31.4621 122.665C31.8721 122.558 32.2234 122.294 32.4401 121.93L32.9501 121.19C33.2087 120.857 33.3264 120.436 33.2778 120.017C33.2291 119.598 33.0181 119.215 32.6901 118.95C32.3235 118.738 31.888 118.679 31.4781 118.785C31.0681 118.892 30.7167 119.156 30.5001 119.52L29.9901 120.26C29.7289 120.592 29.6097 121.014 29.6584 121.434C29.7071 121.853 29.9198 122.237 30.2501 122.5Z" fill="#C4C4F7"/>
<path d="M30.5001 119.52L29.99 120.26C29.8424 120.418 29.7308 120.606 29.6627 120.812C29.5946 121.017 29.5717 121.234 29.5956 121.449C29.6195 121.664 29.6896 121.872 29.8011 122.057C29.9126 122.242 30.0628 122.401 30.2416 122.523C30.4203 122.645 30.6233 122.727 30.8365 122.763C31.0498 122.799 31.2683 122.788 31.4772 122.732C31.686 122.676 31.8801 122.575 32.0463 122.436C32.2126 122.298 32.3469 122.125 32.4401 121.93L32.9501 121.19C32.9903 121.132 33.0271 121.072 33.0601 121.01C32.8251 121.317 32.4857 121.528 32.106 121.601C31.7264 121.675 31.3329 121.607 31.0001 121.41C30.6921 121.175 30.4833 120.833 30.4148 120.452C30.3464 120.071 30.4232 119.677 30.6301 119.35C30.5813 119.402 30.5377 119.459 30.5001 119.52Z" fill="#BBBBF2"/>
<path d="M12 117.93C12.2139 118.055 12.4682 118.09 12.7078 118.028C12.9475 117.966 13.1531 117.812 13.28 117.6L22 105C22.0762 104.903 22.1325 104.792 22.1657 104.673C22.1989 104.554 22.2084 104.429 22.1935 104.307C22.1787 104.184 22.1398 104.066 22.0791 103.958C22.0185 103.851 21.9372 103.756 21.84 103.68C21.6262 103.555 21.3719 103.52 21.1322 103.582C20.8926 103.644 20.687 103.798 20.56 104.01L11.88 116.66C11.7344 116.847 11.6657 117.083 11.688 117.319C11.7103 117.555 11.8219 117.773 12 117.93Z" fill="#A4A4F7"/>
<path d="M22.0001 103.88L14.7801 114.41C14.6447 114.616 14.4381 114.764 14.2001 114.827C13.9621 114.889 13.7093 114.862 13.4901 114.75C13.4042 114.683 13.3299 114.601 13.2701 114.51L11.8202 116.62C11.742 116.714 11.6841 116.823 11.6503 116.94C11.6165 117.057 11.6075 117.18 11.6239 117.301C11.6403 117.422 11.6816 117.539 11.7453 117.643C11.809 117.747 11.8937 117.837 11.994 117.906C12.0943 117.976 12.208 118.024 12.3278 118.047C12.4477 118.071 12.5711 118.069 12.6902 118.042C12.8092 118.015 12.9214 117.964 13.0195 117.891C13.1177 117.818 13.1996 117.726 13.2602 117.62L22.0001 105C22.1119 104.835 22.1717 104.64 22.1717 104.44C22.1717 104.24 22.1119 104.045 22.0001 103.88Z" fill="#8484EF"/>
<path d="M26.1601 121.65L26.9801 122.21C27.6328 122.589 28.4083 122.697 29.1395 122.509C29.8708 122.322 30.4994 121.856 30.8901 121.21L31.7001 120.02C31.9328 119.727 32.1054 119.391 32.2078 119.031C32.3102 118.671 32.3404 118.294 32.2967 117.922C32.2531 117.551 32.1363 117.191 31.9533 116.865C31.7702 116.538 31.5244 116.251 31.2301 116.02L30.4101 115.46C29.7588 115.082 28.9849 114.974 28.2553 115.161C27.5257 115.349 26.8989 115.815 26.5101 116.46L25.6901 117.65C25.2251 118.244 25.0136 118.998 25.1016 119.747C25.1896 120.496 25.57 121.18 26.1601 121.65Z" fill="#A4A4F7"/>
<path d="M25.7401 117.59L24.5201 119.37C24.3736 119.557 24.3072 119.795 24.3353 120.031C24.3634 120.267 24.4838 120.482 24.6701 120.63L28.4801 123.23C28.6858 123.35 28.9307 123.384 29.1613 123.324C29.3918 123.264 29.5892 123.115 29.7101 122.91L30.9301 121.13C30.8092 121.335 30.6118 121.484 30.3813 121.544C30.1507 121.604 29.9058 121.57 29.7001 121.45L25.8901 118.86C25.7964 118.787 25.7181 118.696 25.6598 118.592C25.6015 118.488 25.5643 118.374 25.5503 118.256C25.5364 118.138 25.546 118.018 25.5785 117.904C25.6111 117.79 25.666 117.683 25.7401 117.59Z" fill="#8484EF"/>
<path d="M22.3901 126.24C22.3027 125.719 22.3196 125.185 22.4397 124.67C22.5599 124.155 22.7809 123.669 23.0901 123.24C23.3057 122.968 23.5432 122.714 23.8001 122.48C23.9154 122.347 24.0638 122.247 24.2301 122.19C24.5518 122.151 24.877 122.226 25.1501 122.4C25.4773 122.567 25.7433 122.833 25.9101 123.16C25.9791 123.394 25.9603 123.645 25.8572 123.866C25.7541 124.087 25.5737 124.263 25.3501 124.36C25.3071 124.387 25.2725 124.425 25.2501 124.47C25.2501 124.54 25.2501 124.62 25.3201 124.7C25.5215 124.994 25.6232 125.344 25.6101 125.7C25.6016 125.778 25.5773 125.854 25.5385 125.923C25.4998 125.991 25.4475 126.051 25.3848 126.099C25.3221 126.147 25.2503 126.181 25.1739 126.2C25.0974 126.219 25.0179 126.223 24.9401 126.21C24.7901 126.21 24.5901 126.12 24.5401 126.21C24.5299 126.253 24.5299 126.297 24.5401 126.34C24.5674 126.486 24.5618 126.636 24.5237 126.78C24.4857 126.923 24.4161 127.057 24.3201 127.17C24.2717 127.23 24.2049 127.272 24.1301 127.29C24.0671 127.3 24.0031 127.3 23.9401 127.29C23.7023 127.217 23.4741 127.117 23.2601 126.99" fill="#FFB9B0"/>
<path d="M28.0001 127.12C27.8934 126.608 27.8166 126.091 27.7701 125.57C27.7543 124.986 27.5933 124.415 27.3018 123.909C27.0102 123.403 26.5973 122.977 26.1001 122.67C26.0232 122.611 25.9269 122.582 25.8301 122.59C25.7707 122.605 25.7174 122.638 25.6779 122.684C25.6384 122.731 25.6147 122.789 25.6101 122.85C25.597 122.972 25.6142 123.096 25.6601 123.21C25.7801 123.58 26.3001 124.27 26.1401 124.64C25.8728 125.203 25.7296 125.817 25.7201 126.44C25.7201 126.99 26.0001 127.88 26.6501 127.97" fill="#FFB9B0"/>
<path d="M13.3101 98.0601L15.86 104.06" stroke="#C4C4F7" stroke-width="0.75" stroke-linecap="round" stroke-linejoin="round"/>
<path d="M8.00012 103.39L13.2201 107.3" stroke="#C4C4F7" stroke-width="0.75" stroke-linecap="round" stroke-linejoin="round"/>
<path d="M4.64014 110.66L11.1201 111.3" stroke="#C4C4F7" stroke-width="0.75" stroke-linecap="round" stroke-linejoin="round"/>
<path d="M212.46 47.52C212.46 47.52 210.13 45.87 210.05 45.18C209.502 43.747 208.751 42.4 207.82 41.18C206.642 40.4383 205.347 39.9007 203.99 39.59C203.41 39.51 200.06 39.79 200.48 40.25C200.9 40.71 203.06 40.54 203.48 40.79L203.9 41.04C203.9 41.04 203.48 41.6 203.65 41.94C203.82 42.28 202.94 42.81 203.27 43.39C203.6 43.97 203.13 43.93 203.43 44.54C203.92 45.54 205.18 46.1 205.52 45.83C205.77 46.42 206.72 47.64 207.62 47.55C208.52 47.46 210.69 49.55 210.69 49.55" fill="#FFB9B0"/>
<path d="M248 35.8201C248.08 37.3801 248 40.1101 248.41 40.5101C248.82 40.9101 250.31 40.8501 250.31 40.8501C250.31 40.8501 245.14 47.3901 244.67 47.0301C244.2 46.6701 238.1 41.6901 239.47 41.4301C240.84 41.1701 242.19 41.2301 242.15 40.5201L242.03 38.3801" fill="#FFB9B0"/>
<path d="M253.88 70.7301C253.88 70.7301 243.8 71.8801 241.47 71.9201C239.14 71.9601 239.27 70.7601 239.27 70.7601C239.141 67.2038 238.807 63.658 238.27 60.1401C237.82 58.2301 237.62 57.5301 237.27 55.7201C236.4 51.7201 236.44 50.9201 235.52 45.9501L241.52 41.1101C241.786 41.7113 242.232 42.2157 242.796 42.554C243.36 42.8923 244.014 43.0481 244.67 43.0001C245.554 43.0818 246.442 42.9063 247.228 42.4946C248.014 42.083 248.664 41.4528 249.1 40.6801L257.32 46.1301L258 59.4001L257 70.3301" fill="#FCA70C"/>
<path d="M248.1 34.4C247.918 35.189 247.681 35.9643 247.39 36.72C247.224 37.3145 246.855 37.8321 246.347 38.1829C245.84 38.5337 245.225 38.6954 244.61 38.64L241.52 38.71C240.681 38.8395 239.824 38.6581 239.11 38.2C238.597 37.5662 238.318 36.7752 238.32 35.96C238.14 34.96 237.99 33.96 237.88 33.02C237.66 31.0915 237.57 29.1505 237.61 27.21C237.604 26.9448 237.627 26.6798 237.68 26.42C237.69 26.3115 237.736 26.2095 237.81 26.13C237.914 26.0418 238.044 25.9892 238.18 25.98C240.111 25.677 242.066 25.5531 244.02 25.61C245.402 25.5267 246.776 25.8762 247.95 26.61C248.967 27.5689 249.692 28.7962 250.04 30.15C250.12 30.36 250.17 30.64 250.04 30.77" fill="#FFB9B0"/>
<path d="M225.48 106.71C225.621 107.619 225.822 108.517 226.08 109.4C226.34 110.09 228.6 109.46 228.74 109.01C228.621 107.758 228.386 106.519 228.04 105.31" fill="#ED9C80"/>
<path d="M229.53 109.58C229.72 110.32 229.97 111.74 229.97 111.74L227.72 112.74L227.35 112.39C227.001 112.801 226.577 113.14 226.1 113.39C225.4 113.676 224.668 113.877 223.92 113.99C221.92 114.2 220.52 113.83 220.4 113.56C219.91 112.42 222.52 112.12 223.03 111.98C223.624 111.825 224.167 111.515 224.601 111.081C225.035 110.647 225.345 110.104 225.5 109.51C225.62 108.91 225.5 108.81 225.8 108.83C225.906 108.832 226.011 108.857 226.107 108.901C226.204 108.946 226.29 109.01 226.36 109.09C226.555 109.311 226.814 109.466 227.101 109.532C227.388 109.598 227.688 109.573 227.96 109.46C228.29 109.331 228.57 109.099 228.76 108.8C228.95 108.841 229.125 108.937 229.261 109.075C229.398 109.214 229.492 109.389 229.53 109.58Z" fill="#38287C"/>
<path d="M235.42 80.49C231.626 81.1595 227.752 81.2505 223.93 80.7599C224.43 82.1799 225.65 84.01 226.11 86.02C227.65 92.64 228.18 101.54 228.57 107.02C228.57 107.02 227.83 108.43 225.47 107.36C221.95 98.66 215.8 81.03 215.86 77.2C215.93 72.33 228.08 71.2 236.99 69.96" fill="#453087"/>
<path d="M250.94 70.7401C253.74 72.7401 235.42 80.4901 235.42 80.4901C233.444 80.881 231.434 81.0719 229.42 81.06C229.218 80.7038 229.07 80.3197 228.98 79.92C228.87 79.39 228.92 78.84 228.83 78.3C228.716 77.784 228.494 77.2979 228.179 76.8739C227.863 76.4499 227.462 76.0975 227 75.84C226.077 75.3104 225.057 74.9704 224 74.84C221.738 74.6076 219.459 74.5675 217.19 74.72C222.7 70.66 233.97 70.13 239.19 69.79C240.22 71.48 250.54 70.4501 250.94 70.7401Z" fill="#38287C"/>
<path d="M231.29 111.34C231.274 112.262 231.314 113.183 231.41 114.1C231.55 114.82 233.88 114.59 234.1 114.18C234.202 112.921 234.185 111.656 234.05 110.4" fill="#ED9C80"/>
<path d="M234.78 114.87C234.84 115.63 234.84 117.07 234.84 117.07L232.45 117.65L232.15 117.24C231.736 117.582 231.261 117.843 230.75 118.01C230.011 118.169 229.256 118.24 228.5 118.22C226.5 118.09 225.17 117.48 225.1 117.22C224.82 116.01 227.44 116.16 227.97 116.12C228.581 116.069 229.167 115.857 229.67 115.506C230.172 115.154 230.573 114.676 230.83 114.12C231.05 113.55 230.92 113.43 231.24 113.5C231.451 113.548 231.634 113.677 231.75 113.86C231.906 114.109 232.134 114.304 232.404 114.418C232.674 114.532 232.973 114.561 233.26 114.5C233.607 114.43 233.922 114.251 234.16 113.99C234.337 114.062 234.489 114.184 234.599 114.339C234.708 114.495 234.771 114.679 234.78 114.87Z" fill="#38287C"/>
<path d="M257.05 70.3301C252.924 70.6913 248.781 70.8248 244.64 70.7301C243.05 70.7301 231.06 72.9801 229.91 75.0101C228.03 78.3501 231.14 97.8901 230.91 111.88C230.91 111.88 232.34 113.08 234.91 111.95C235.54 105.08 239.6 88.8701 236.8 81.3001C243.41 82.1801 248.74 83.0501 254.75 81.0601C255.496 80.8094 256.169 80.3791 256.71 79.8071C257.25 79.2352 257.642 78.539 257.85 77.7801C258.423 75.2771 258.141 72.6545 257.05 70.3301Z" fill="#453087"/>
<path d="M241.47 41.11L239.75 41.21C238.538 41.2757 237.341 41.5044 236.19 41.89C234.56 42.49 233.4 44.01 232.07 45.2C230.74 46.39 224.15 52.67 222.92 52.9C221.69 53.13 210.81 45.69 210.81 45.69L208.16 48.34C208.16 48.34 219.95 59.24 223.47 59.26C225.17 59.26 234.59 54.31 237.6 52.39L241.47 41.11Z" fill="#FCA70C"/>
<g style="mix-blend-mode:multiply" opacity="0.25">
<path d="M223.49 57.1701C221.07 57.3001 209.96 48.8201 208.67 47.8301L208.16 48.3401C208.16 48.3401 219.95 59.2401 223.47 59.2601C224.89 59.2601 231.66 55.8301 235.62 53.5601L236.62 52.9701L236 49.3101C236 49.3101 226.07 57.0001 223.49 57.1701Z" fill="#CE4A30"/>
</g>
<path d="M212.18 72.51H239.18L234.34 56.73C234.21 56.3027 233.945 55.9293 233.584 55.6659C233.223 55.4026 232.787 55.2636 232.34 55.27H208.71C208.5 55.2704 208.292 55.3199 208.104 55.4147C207.917 55.5095 207.753 55.6469 207.628 55.816C207.503 55.985 207.419 56.181 207.383 56.3883C207.346 56.5956 207.359 56.8085 207.42 57.01L212.18 72.51Z" fill="#A4A4F7"/>
<path d="M211.84 72.5101H238.43L233.59 56.7301C233.457 56.3045 233.191 55.9329 232.831 55.67C232.471 55.4072 232.036 55.267 231.59 55.2701H208C207.79 55.2699 207.582 55.3192 207.395 55.4141C207.207 55.5089 207.044 55.6466 206.92 55.816C206.795 55.9854 206.712 56.1818 206.677 56.3892C206.643 56.5967 206.657 56.8093 206.72 57.0101L211.35 72.1301C211.384 72.2353 211.449 72.3279 211.536 72.3957C211.624 72.4635 211.73 72.5033 211.84 72.5101Z" fill="#7A74D1"/>
<g style="mix-blend-mode:multiply" opacity="0.25">
<path d="M253.35 48.72C252.319 53.7218 251.65 58.7917 251.35 63.89C246.63 65.72 244.71 68.45 240.09 70.5C240.09 70.5 236.45 69.9 236.09 71.27C235.87 72.06 240.35 72.7 240.35 72.7C244.63 72.7 255.91 69.59 256.68 69.38C257.45 69.17 259.68 54.83 259.75 47.05C259.886 45.943 259.635 44.8233 259.04 43.88C258.647 43.4538 258.171 43.1134 257.64 42.88C254.977 41.4983 252.03 40.7554 249.03 40.71" fill="#CE4A30"/>
</g>
<path d="M240.77 71.44C240.473 71.1591 240.116 70.9492 239.727 70.8262C239.337 70.7032 238.924 70.6703 238.52 70.73C237.918 70.7452 237.317 70.7953 236.72 70.88C236.45 70.88 236.14 70.98 236.11 71.27C236.08 71.56 237.43 71.27 238.11 71.48C236.72 71.5966 235.324 71.6333 233.93 71.59C233.772 71.555 233.608 71.555 233.45 71.59C233.373 71.6166 233.305 71.6663 233.257 71.7325C233.209 71.7987 233.182 71.8781 233.18 71.96C233.203 72.0832 233.271 72.1935 233.37 72.27C233.787 72.5938 234.285 72.7947 234.81 72.85C236.933 73.2892 239.137 73.0944 241.15 72.29" fill="#FFB9B0"/>
<path d="M253.06 48.6C252.94 55.1 252.48 58.07 252.61 64.6C249.35 65.3 244.84 68.99 240.22 71.05C240.07 71.6135 240.123 72.2118 240.37 72.74C240.73 72.86 255.94 69.16 257.15 68.04C258.36 66.92 259.68 54.87 259.77 47.09C259.906 45.9831 259.655 44.8633 259.06 43.92C258.667 43.4938 258.191 43.1534 257.66 42.92C254.997 41.5384 252.05 40.7954 249.05 40.75" fill="#FCA70C"/>
<path opacity="0.45" d="M225.56 64.16C225.66 65.55 224.02 66.67 221.91 66.67C219.8 66.67 218 65.55 217.91 64.16C217.82 62.77 219.44 61.66 221.56 61.66C223.68 61.66 225.46 62.78 225.56 64.16Z" stroke="#A4A4F7" stroke-miterlimit="10"/>
<path d="M224.137 64.2535C224.167 63.4864 223.104 62.8222 221.763 62.7699C220.422 62.7177 219.311 63.2973 219.281 64.0643C219.251 64.8314 220.314 65.4956 221.655 65.5478C222.996 65.6 224.107 65.0205 224.137 64.2535Z" fill="#A4A4F7"/>
<path d="M243.35 30.2501C243.3 30.0101 242.76 29.9601 242.21 30.0301C241.432 30.0832 240.664 30.2448 239.93 30.5101C239.64 30.7401 239.65 30.9001 239.49 30.9201C239.33 30.9401 239.33 30.7801 238.98 30.6301C238.412 30.5205 237.828 30.5205 237.26 30.6301C236.72 30.7001 236.26 30.8201 236.26 31.0601C236.26 31.3259 236.337 31.5862 236.48 31.8101C236.59 31.8801 236.59 31.8701 237.01 32.8101C237.043 32.9468 237.104 33.0752 237.189 33.1869C237.275 33.2985 237.383 33.3908 237.506 33.4578C237.63 33.5248 237.766 33.565 237.907 33.5757C238.047 33.5864 238.188 33.5675 238.32 33.5201C239.21 33.3201 239.26 32.3101 239.32 31.8801C239.38 31.4501 239.45 31.4001 239.59 31.3801C239.73 31.3601 239.82 31.3801 239.99 31.8001C240.16 32.2201 240.29 33.1 241.2 33.15C242.39 33.22 242.91 32.81 243.08 32.04C243.3 31.04 243.25 31.0401 243.34 30.9101C243.638 30.9068 243.936 30.9302 244.23 30.9801V30.6701C243.927 30.5522 243.633 30.4118 243.35 30.2501ZM239 32.3401C239.025 32.6008 238.947 32.8611 238.783 33.0649C238.618 33.2687 238.38 33.3998 238.12 33.43C237.57 33.5 237.32 33.2101 237.02 32.5101C236.81 32.122 236.746 31.6713 236.84 31.2401C236.94 31.0701 237.23 31.0801 237.91 31.0301C238.59 30.9801 238.82 30.9801 238.91 31.2801C238.987 31.6278 239.017 31.9843 239 32.3401ZM242.89 31.7701C242.78 32.5201 242.5 32.8801 241.75 32.9701C240.69 33.1001 240.48 32.6801 240.33 32.1701C240.213 31.849 240.145 31.5117 240.13 31.1701C240.13 30.8501 240.38 30.81 241.05 30.68C241.72 30.55 242.62 30.4 242.75 30.54C242.943 30.9196 242.996 31.3552 242.9 31.7701H242.89Z" fill="#483A99"/>
<path d="M250.56 28.59C250.501 28.0505 250.404 27.5159 250.27 26.99C250.103 26.3014 249.794 25.6551 249.364 25.0921C248.934 24.5292 248.391 24.0619 247.77 23.72C246.021 22.8513 244.015 22.6521 242.13 23.16C241.13 23.45 240.71 23.99 240.13 23.98C239.632 23.881 239.148 23.7197 238.69 23.5C234.69 22.05 235.33 26 235.76 27.09C235.95 27.57 236.86 27.92 236.98 28.09C237.082 28.618 237.146 29.1527 237.17 29.69C237.202 29.8218 237.263 29.9444 237.35 30.0485C237.437 30.1526 237.546 30.2352 237.67 30.29C237.67 30.29 237.67 29.02 237.67 28.84C237.682 28.6108 237.741 28.3866 237.845 28.1817C237.948 27.9768 238.093 27.7957 238.27 27.65C238.721 27.4177 239.214 27.2782 239.72 27.24C240.737 27.2688 241.746 27.4336 242.72 27.73C243.48 28.38 243.72 29.86 243.88 30.73C243.98 31.13 244.09 31.4 244.25 31.4C244.38 30.2 244.79 30.17 245.5 30.58C245.717 30.7871 245.884 31.0402 245.989 31.3206C246.095 31.601 246.136 31.9015 246.11 32.2C246.154 32.581 246.068 32.9657 245.867 33.2922C245.665 33.6186 245.36 33.8679 245 34C244.71 34.06 245.57 35.69 246 36.1C246.126 36.2389 246.266 36.363 246.42 36.47C246.575 36.5506 246.74 36.6111 246.91 36.65L247.49 36.8C247.74 36.9025 248.016 36.9269 248.28 36.87C248.7 36.75 248.93 36.3 249.12 35.87C249.44 35.22 249.8 34.58 250.06 33.87C250.627 32.1711 250.798 30.3651 250.56 28.59Z" fill="#483A99"/>
<path d="M323.31 88.42H272.21L278.33 83.89V61.7899C278.33 60.9041 278.682 60.0546 279.308 59.4282C279.935 58.8019 280.784 58.45 281.67 58.45H323.31C324.195 58.4526 325.043 58.8053 325.669 59.4311C326.295 60.0569 326.647 60.9049 326.65 61.7899V85.08C326.647 85.965 326.295 86.813 325.669 87.4388C325.043 88.0646 324.195 88.4173 323.31 88.42Z" fill="#D5D2FF"/>
<path opacity="0.45" d="M322.2 62.76H298.85V64.99H322.2V62.76Z" fill="white"/>
<path opacity="0.45" d="M322.2 66.1H298.85V68.33H322.2V66.1Z" fill="white"/>
<path opacity="0.45" d="M322.2 69.4401H298.85V71.6701H322.2V69.4401Z" fill="white"/>
<path opacity="0.45" d="M322.2 72.6901H298.85V74.9201H322.2V72.6901Z" fill="white"/>
<path opacity="0.45" d="M315.14 76.5801H298.85V78.8101H315.14V76.5801Z" fill="white"/>
<path d="M293.63 62.76H285.74C283.868 62.76 282.35 64.2778 282.35 66.15V76.52C282.35 78.3923 283.868 79.91 285.74 79.91H293.63C295.502 79.91 297.02 78.3923 297.02 76.52V66.15C297.02 64.2778 295.502 62.76 293.63 62.76Z" fill="#A9ADFF"/>
<path opacity="0.45" d="M297.02 82.05H282.35V83.89H297.02V82.05Z" fill="white"/>
<path d="M291.13 73.89H285.81C285.664 73.8905 285.522 73.8427 285.407 73.7541C285.291 73.6654 285.208 73.5409 285.17 73.4L284.17 69.62C284.144 69.5216 284.141 69.4185 284.161 69.3187C284.181 69.2189 284.224 69.1249 284.285 69.0439C284.347 68.963 284.426 68.8971 284.517 68.8514C284.608 68.8057 284.708 68.7813 284.81 68.78H292.19C292.292 68.7813 292.392 68.8057 292.483 68.8514C292.574 68.8971 292.653 68.963 292.715 69.0439C292.777 69.1249 292.819 69.2189 292.839 69.3187C292.859 69.4185 292.856 69.5216 292.83 69.62L291.83 73.4C291.791 73.5514 291.698 73.6838 291.57 73.7736C291.442 73.8633 291.286 73.9046 291.13 73.89Z" fill="white"/>
<path d="M292.07 74.74H285.66C285.643 74.7415 285.625 74.7392 285.609 74.7332C285.592 74.7272 285.577 74.7177 285.565 74.7053C285.552 74.6929 285.543 74.6779 285.537 74.6615C285.531 74.645 285.529 74.6274 285.53 74.61C285.53 74.5755 285.544 74.5424 285.568 74.5181C285.593 74.4937 285.626 74.48 285.66 74.48H292L294.23 66.7C294.238 66.6717 294.256 66.6469 294.279 66.6289C294.302 66.611 294.331 66.6009 294.36 66.6H295.75C295.768 66.5999 295.786 66.6036 295.802 66.6107C295.819 66.6179 295.834 66.6284 295.846 66.6415C295.858 66.6547 295.867 66.6702 295.873 66.6871C295.879 66.7041 295.881 66.7221 295.88 66.74C295.88 66.7745 295.866 66.8075 295.842 66.8319C295.818 66.8563 295.785 66.87 295.75 66.87H294.46L292.23 74.65C292.221 74.6831 292.199 74.7112 292.169 74.728C292.139 74.7449 292.103 74.7492 292.07 74.74Z" fill="white"/>
<path d="M286.64 75.79C286.64 75.9443 286.594 76.0951 286.509 76.2234C286.423 76.3516 286.301 76.4516 286.159 76.5106C286.016 76.5697 285.859 76.5851 285.708 76.555C285.557 76.5249 285.418 76.4506 285.309 76.3416C285.199 76.2325 285.125 76.0935 285.095 75.9422C285.065 75.7909 285.08 75.634 285.139 75.4915C285.199 75.349 285.298 75.2272 285.427 75.1415C285.555 75.0558 285.706 75.01 285.86 75.01C286.067 75.01 286.265 75.0922 286.412 75.2385C286.558 75.3847 286.64 75.5831 286.64 75.79Z" fill="white"/>
<path d="M291.5 76.57C291.931 76.57 292.28 76.2208 292.28 75.79C292.28 75.3592 291.931 75.01 291.5 75.01C291.069 75.01 290.72 75.3592 290.72 75.79C290.72 76.2208 291.069 76.57 291.5 76.57Z" fill="white"/>
<path d="M133.48 57.55H198.58L190.79 51.79V16.17C190.79 15.0402 190.341 13.9567 189.542 13.1578C188.743 12.3589 187.66 11.91 186.53 11.91H133.53C132.971 11.91 132.418 12.0203 131.901 12.2345C131.385 12.4487 130.916 12.7626 130.521 13.1584C130.127 13.5541 129.814 14.0238 129.601 14.5406C129.388 15.0573 129.279 15.6111 129.28 16.17V53.3C129.28 54.4186 129.721 55.4921 130.507 56.2877C131.293 57.0833 132.362 57.5369 133.48 57.55Z" fill="#D5D2FF"/>
<g opacity="0.45">
<path d="M134.89 21.37L164.64 21.37V18.52L134.89 18.52V21.37Z" fill="white"/>
<path d="M134.89 25.62L164.64 25.62V22.77L134.89 22.77V25.62Z" fill="white"/>
<path d="M134.89 29.88L164.64 29.88V27.03L134.89 27.03V29.88Z" fill="white"/>
<path d="M134.89 34.01L164.64 34.01V31.16L134.89 31.16V34.01Z" fill="white"/>
<path d="M134.89 38.16L164.64 38.16V35.31H134.89V38.16Z" fill="white"/>
<path d="M134.89 45.6901L164.64 45.6901V42.8401H134.89V45.6901Z" fill="white"/>
<path d="M134.89 50.17L185.67 50.17V47.3201L134.89 47.3201V50.17Z" fill="white"/>
</g>
<path d="M171.29 40.37H181.36C183.741 40.37 185.67 38.4403 185.67 36.06V22.83C185.67 20.4497 183.741 18.52 181.36 18.52H171.29C168.91 18.52 166.98 20.4497 166.98 22.83V36.06C166.98 38.4403 168.91 40.37 171.29 40.37Z" fill="#C4C4F7"/>
<path opacity="0.45" d="M166.98 45.4401H185.67V43.0901H166.98V45.4401Z" fill="white"/>
<path d="M174.47 32.7001H181.26C181.444 32.6983 181.622 32.6369 181.768 32.5251C181.915 32.4133 182.02 32.2571 182.07 32.0801L183.38 27.2601C183.414 27.1342 183.418 27.0023 183.393 26.8745C183.367 26.7467 183.313 26.6264 183.234 26.523C183.155 26.4196 183.053 26.3358 182.936 26.2781C182.819 26.2203 182.69 26.1902 182.56 26.1901H173.17C173.04 26.1902 172.911 26.2203 172.795 26.2781C172.678 26.3358 172.576 26.4196 172.497 26.523C172.417 26.6264 172.363 26.7467 172.337 26.8745C172.312 27.0023 172.316 27.1342 172.35 27.2601L173.66 32.0801C173.71 32.2571 173.816 32.4133 173.962 32.5251C174.108 32.6369 174.286 32.6983 174.47 32.7001Z" fill="white"/>
<path d="M173.28 33.78H181.45C181.494 33.7801 181.535 33.7636 181.567 33.7338C181.599 33.7041 181.618 33.6634 181.62 33.62C181.62 33.5749 181.602 33.5317 181.57 33.4998C181.538 33.4679 181.495 33.45 181.45 33.45H173.45L170.61 23.53C170.598 23.4949 170.575 23.4645 170.544 23.443C170.514 23.4215 170.477 23.41 170.44 23.41H168.67C168.625 23.41 168.582 23.4279 168.55 23.4598C168.518 23.4917 168.5 23.5349 168.5 23.58C168.5 23.6251 168.518 23.6684 168.55 23.7002C168.582 23.7321 168.625 23.75 168.67 23.75H170.32L173.16 33.66C173.167 33.6893 173.182 33.716 173.203 33.7372C173.224 33.7585 173.251 33.7733 173.28 33.78Z" fill="white"/>
<path d="M180.2 35.11C180.2 35.3078 180.259 35.5011 180.369 35.6656C180.478 35.83 180.635 35.9582 180.817 36.0339C181 36.1095 181.201 36.1294 181.395 36.0908C181.589 36.0522 181.767 35.9569 181.907 35.8171C182.047 35.6772 182.142 35.499 182.181 35.3051C182.219 35.1111 182.2 34.91 182.124 34.7273C182.048 34.5446 181.92 34.3884 181.756 34.2785C181.591 34.1686 181.398 34.11 181.2 34.11C180.935 34.11 180.68 34.2153 180.493 34.4029C180.305 34.5904 180.2 34.8448 180.2 35.11Z" fill="white"/>
<path d="M173 35.11C173 35.3078 173.059 35.5011 173.169 35.6656C173.279 35.83 173.435 35.9582 173.617 36.0339C173.8 36.1095 174.001 36.1294 174.195 36.0908C174.389 36.0522 174.567 35.9569 174.707 35.8171C174.847 35.6772 174.942 35.499 174.981 35.3051C175.019 35.1111 175 34.91 174.924 34.7273C174.848 34.5446 174.72 34.3884 174.556 34.2785C174.391 34.1686 174.198 34.11 174 34.11C173.735 34.11 173.481 34.2153 173.293 34.4029C173.105 34.5904 173 34.8448 173 35.11Z" fill="white"/>
<path d="M284.06 245.04C299.905 245.04 312.75 243.688 312.75 242.02C312.75 240.352 299.905 239 284.06 239C268.215 239 255.37 240.352 255.37 242.02C255.37 243.688 268.215 245.04 284.06 245.04Z" fill="#EAE6FF"/>
<path d="M268.66 237.73C267.877 238.737 266.842 239.52 265.66 240C264.07 240.71 260.66 241.05 262.56 241.67C264.261 242.098 266.038 242.122 267.75 241.74C268.91 241.584 270.08 241.514 271.25 241.53C272.98 241.53 272.99 241.42 272.76 239.47C272.44 236.78 269.44 236.21 268.66 237.73Z" fill="#9AA3F4"/>
<path d="M300 236.76C299.9 237.3 300.67 238.94 299.3 240.14C297.93 241.34 294.8 242.61 296.87 242.66C298.626 242.705 300.37 242.363 301.98 241.66C302.98 241.14 302.19 240.32 303.49 239.91C305.21 239.37 304.86 238.1 303.97 237.32C302.8 234.8 300.29 235 300 236.76Z" fill="#9AA3F4"/>
<path d="M293.39 182.15C293.39 182.15 297.51 170.03 285.82 160.06C285.82 160.06 279.56 162.55 274.54 162.85C272.558 163.023 270.563 162.98 268.59 162.72C268.59 162.72 268.25 173.48 268.24 179.28L293.39 182.15Z" fill="#4A41A3"/>
<path d="M267.29 202.27C267.07 196.85 272.94 197.56 275.1 201.61C279.58 209.97 273.45 229.24 272.64 238.37C271.66 238.791 270.564 238.858 269.54 238.56C269.141 238.331 268.826 237.981 268.64 237.56C268.77 226.37 267.53 208.06 267.29 202.27Z" fill="#4A41A3"/>
<path d="M274.9 203.09C274.23 205.3 266.73 207.62 267.34 199.57C267.61 196 268.34 176.29 268.46 174.39C268.58 172.49 268.92 169.71 269.84 169.39C274.43 167.65 282.55 173.66 281.35 180.79C280.54 185.54 276.3 198.5 274.9 203.09Z" fill="#4A41A3"/>
<path d="M286.7 206.16C284.89 201.05 290.77 200.16 294.11 203.3C301.93 210.67 302.24 228.03 304.11 236.99C303.081 237.625 301.899 237.971 300.69 237.99C300.51 237.986 300.333 237.942 300.172 237.86C300.011 237.779 299.87 237.663 299.76 237.52C296.62 226.76 288.64 211.62 286.7 206.16Z" fill="#4A41A3"/>
<path d="M294.43 204.49C294.64 206.8 288.43 211.56 285.93 203.87C284.84 200.46 280.17 180.31 279.58 178.49C278.99 176.67 279.16 172.94 279.88 172.27C283.48 168.94 291.62 171.87 293.18 178.94C294.23 183.66 294 199.72 294.43 204.49Z" fill="#4A41A3"/>
<path d="M262.25 116.27C262.46 116.05 262.68 115.82 262.87 115.58C264.35 113.68 264.56 112 265.94 109.8C266.232 109.146 266.566 108.511 266.94 107.9C267.566 107.16 268.322 106.54 269.17 106.07C269.81 105.74 269.26 107.15 269.26 107.15C269.26 107.15 269.8 106.36 270.33 106.42C270.53 106.42 270.57 107.64 270.57 107.85C270.597 109.511 270.212 111.154 269.45 112.63C269.239 112.958 269.109 113.332 269.07 113.72C269.554 113.64 270.003 113.417 270.36 113.08C270.539 112.915 270.755 112.793 270.989 112.726C271.223 112.658 271.47 112.646 271.71 112.69C271.644 112.886 271.557 113.073 271.45 113.25C270.974 114.412 270.145 115.394 269.08 116.06C268.41 116.37 267.64 116.43 266.98 116.78C265.79 117.41 265.22 118.87 263.98 119.46" fill="#F2A181"/>
<path d="M272.916 108.007L269.392 106.533C269.061 106.395 268.68 106.551 268.541 106.882L265.408 114.373C265.269 114.704 265.425 115.085 265.757 115.224L269.281 116.698C269.612 116.836 269.993 116.68 270.131 116.349L273.265 108.858C273.403 108.527 273.247 108.146 272.916 108.007Z" fill="#5E5DBB"/>
<path d="M273.052 108.633L269.094 106.977L265.849 114.736L269.806 116.391L273.052 108.633Z" fill="#B4B4DB"/>
<path d="M273.07 123.93C271.134 124.065 269.217 124.401 267.35 124.93C263.28 126.15 261.88 128.03 260.47 128.81C263.2 125.34 266.25 117.99 266.25 117.99C266.25 117.99 262.58 114.99 262.15 115.68C261.72 116.37 246.32 134.43 246.8 137.35C247 138.55 248.8 139.74 250.36 139.69C254.73 139.54 259.81 137.95 265.13 136.21C267.47 135.44 268.19 137.09 268.19 137.09" fill="#7A74D1"/>
<path d="M260.47 128.78C260.47 128.78 258.53 132.7 258 133C257.47 133.3 259.41 132.19 260.51 131.06C261.511 129.791 262.375 128.42 263.09 126.97C262.175 127.51 261.299 128.115 260.47 128.78Z" fill="#6960C4"/>
<path d="M266.56 109.83C266.731 109.992 266.831 110.215 266.84 110.45C267.049 111.305 267.022 112.2 266.76 113.04C266.529 113.551 266.187 114.006 265.76 114.37C265.275 114.792 264.741 115.154 264.17 115.45" fill="#F2A181"/>
<path d="M273.16 103.32C272.16 103.62 271.59 104.95 271.24 105.86C270.844 106.964 270.585 108.113 270.47 109.28C270.314 110.081 270.373 110.909 270.64 111.68C270.821 112.04 271.046 112.376 271.31 112.68C271.441 112.875 271.603 113.048 271.79 113.19C271.885 113.26 271.995 113.307 272.111 113.328C272.227 113.349 272.347 113.343 272.46 113.31C272.608 113.22 272.733 113.098 272.827 112.952C272.92 112.807 272.98 112.642 273 112.47C273.503 110.283 274.336 108.186 275.47 106.25" fill="#170D54"/>
<path d="M272 110.16C272 109.47 271.26 109.03 270.63 109.74C270.148 110.494 269.908 111.376 269.94 112.27C269.94 113.27 270.67 113.46 271.31 113.6" fill="#F2A181"/>
<path d="M265.14 127.48C266.41 126.03 270.45 123.62 275.84 123.79C279.55 123.91 289.66 124.52 290.79 127.01C291.37 128.28 291.99 141.28 291.15 145.77C290.51 149.14 288.88 157.49 288.88 159.5C288.88 161.51 289.97 162.38 289.46 162.97C288.33 164.28 280.59 164.83 276.96 164.83C273.72 164.83 268.22 163.97 267.96 162.93C267.55 161.4 268.59 161.45 268.73 159.84C268.87 158.23 269.28 147.77 268.73 146.05C267.66 142.96 267.14 137.92 266.29 135.63C265.58 133.9 263.87 128.94 265.14 127.48Z" fill="#7A74D1"/>
<path d="M288.3 138C288.69 138.8 291.3 143 291.3 143L291.4 143.51C291.353 144.264 291.267 145.015 291.14 145.76C290.5 149.13 288.87 157.48 288.87 159.49C288.87 161.5 289.87 162.34 289.45 162.96C288.56 164.17 273.97 166.89 274.68 163.51C274.75 163.21 286.93 153.91 287 153.6C287.56 150.93 288 149.01 288.29 147.07C288.9 142.4 287.92 137.2 288.3 138Z" fill="#6960C4"/>
<path d="M272.9 119.14C272.915 120.609 272.848 122.078 272.7 123.54C272.382 123.756 272.048 123.946 271.7 124.11C271.7 124.11 272.3 127.78 273.22 127.51C274.14 127.24 280.22 124.17 280.22 124.17C280.22 124.17 279.36 123.82 279.36 123.47C279.36 123.12 280.18 116.47 280.18 116.47" fill="#FFBE9D"/>
<path d="M277.12 103.78C276.24 104.02 273.9 103.54 273.26 104.5C272.65 105.767 272.164 107.089 271.81 108.45C271.33 109.73 271.01 111.11 270.66 112.45C270.21 114.17 269.46 117.33 271.14 118.77C271.487 119.129 271.945 119.362 272.44 119.43L274.83 119.89C276.085 120.226 277.402 120.254 278.67 119.97C280.32 119.43 281.22 117.18 281.67 115.64L284.09 106.86L277.12 103.78Z" fill="#FFBE9D"/>
<path d="M272.75 129.16C272.75 129.16 272.39 145.67 271.75 155.71L274.18 159.06L275.85 154.86C276.181 146.302 275.652 137.732 274.27 129.28L272.75 129.16Z" fill="#3B2E7A"/>
<path d="M272.19 127.71L272.25 127.94C272.356 128.369 272.524 128.78 272.75 129.16L274.24 129.28C274.24 129.28 275.24 128.75 275.39 128.18C275.54 127.61 273.72 126.67 273.72 126.67L273.51 126.76C273.005 126.954 272.557 127.274 272.21 127.69L272.19 127.71Z" fill="#3B2E7A"/>
<path d="M279.45 122.45C280.123 122.908 280.7 123.492 281.15 124.17C280.38 125.92 278.65 129.03 276.75 130.45C276.131 128.929 275.09 127.618 273.75 126.67C273.75 126.67 278.92 125.75 279.45 122.45Z" fill="white"/>
<path d="M273.72 126.67C272.439 127.257 271.385 128.248 270.72 129.49C270.532 127.737 270.667 125.964 271.12 124.26C271.12 124.26 272.34 122.7 272.77 122.67C272.739 124.063 273.066 125.44 273.72 126.67Z" fill="white"/>
<path d="M274 163.52C272.598 163.706 271.321 164.421 270.43 165.52C270.35 165.61 270.26 165.71 270.28 165.83C270.3 165.95 270.47 166.04 270.62 166.07C271.48 166.2 271.62 165.66 272.42 165.32C272.96 165.1 273.5 164.86 274.03 164.63" fill="#F2A181"/>
<path d="M267.69 150.08L274.23 171C274.28 171.114 274.301 171.239 274.29 171.364C274.279 171.488 274.238 171.608 274.169 171.712C274.101 171.816 274.007 171.902 273.898 171.961C273.788 172.02 273.665 172.05 273.54 172.05L259.9 173.25C259.642 173.237 259.394 173.145 259.189 172.988C258.983 172.831 258.83 172.616 258.75 172.37L251.75 151.73C251.58 151.17 252.39 150.37 252.94 150.36L266.58 149.17C266.837 149.188 267.081 149.285 267.28 149.448C267.479 149.611 267.622 149.832 267.69 150.08Z" fill="#E9E6FF"/>
<path d="M267.25 150.63L273.69 171.26C273.74 171.374 273.761 171.499 273.75 171.624C273.739 171.748 273.698 171.868 273.63 171.972C273.561 172.076 273.468 172.162 273.358 172.221C273.248 172.28 273.125 172.31 273 172.31L259.36 173.5C259.102 173.49 258.854 173.4 258.649 173.242C258.445 173.085 258.295 172.867 258.22 172.62L251.77 152C251.72 151.886 251.7 151.761 251.71 151.636C251.721 151.512 251.762 151.392 251.831 151.288C251.899 151.184 251.993 151.098 252.103 151.039C252.213 150.98 252.335 150.95 252.46 150.95L266.1 149.75C266.358 149.763 266.606 149.855 266.812 150.012C267.017 150.169 267.17 150.384 267.25 150.63Z" fill="#E0D9FF"/>
<path d="M256.35 149.95L256.83 151.76L263.21 151.2L262.69 149.4L256.35 149.95Z" fill="white"/>
<path d="M257.56 148.27C257.69 148.7 258.2 150.32 258.2 150.32L261.2 150.04L260.6 148C260.468 147.575 260.202 147.203 259.842 146.942C259.481 146.681 259.045 146.543 258.6 146.55C258.404 146.564 258.213 146.625 258.045 146.728C257.877 146.83 257.736 146.972 257.634 147.141C257.532 147.309 257.472 147.5 257.46 147.696C257.447 147.893 257.481 148.09 257.56 148.27ZM258.23 148.27C258.181 148.167 258.158 148.054 258.162 147.94C258.167 147.826 258.199 147.715 258.256 147.617C258.313 147.518 258.394 147.435 258.49 147.375C258.587 147.314 258.696 147.278 258.81 147.27C259.063 147.262 259.311 147.338 259.515 147.487C259.72 147.635 259.869 147.847 259.94 148.09C259.989 148.192 260.012 148.304 260.008 148.418C260.004 148.531 259.973 148.641 259.917 148.739C259.861 148.838 259.782 148.921 259.687 148.982C259.591 149.043 259.483 149.08 259.37 149.09C259.112 149.093 258.86 149.01 258.654 148.854C258.447 148.699 258.298 148.479 258.23 148.23V148.27Z" fill="white"/>
<path d="M279.16 162.06C277.72 162.36 273.91 163.5 273.51 163.68C272.649 164.207 271.836 164.81 271.08 165.48C269.64 166.92 270.38 167.59 269.81 169.55C269.795 169.649 269.795 169.751 269.81 169.85C269.81 170.06 270.08 170.23 270.36 170.04C270.51 170.3 270.95 170.14 271.17 169.87C271.17 170.06 271.44 170.18 271.87 169.94C272.11 169.81 272.07 169.82 272.62 169.33C273.083 168.936 273.607 168.619 274.17 168.39C274.688 168.193 275.192 167.962 275.68 167.7C276.26 167.31 277.3 167.22 277.81 165.57C277.97 165.22 278.25 164.94 278.6 164.78L280.93 163.31" fill="#FFBE9D"/>
<path d="M288 135.22C288.61 137.38 291.13 152.38 291.13 152.38L276.91 162.67L278.09 165.78C278.09 165.78 295.09 160.07 296.45 156.17C297.81 152.27 297.73 134.62 293 128.44C291.773 127.072 290.217 126.039 288.48 125.44" fill="#7A74D1"/>
<path d="M273.37 167.46L273.01 167.78C272.741 168 272.494 168.244 272.27 168.51C272.058 168.788 271.831 169.055 271.59 169.31C271.479 169.429 271.358 169.539 271.23 169.64C271.468 169.182 271.756 168.753 272.09 168.36C272.334 168.091 272.622 167.865 272.94 167.69L273.37 167.46Z" fill="#F2A181"/>
<path d="M272.58 166.52C272.429 166.651 272.298 166.802 272.19 166.97C272.062 167.13 271.941 167.297 271.83 167.47L271.64 167.76C271.582 167.856 271.532 167.956 271.49 168.06C271.232 168.662 270.896 169.226 270.49 169.74C270.49 169.74 270.57 169.5 270.72 169.17C270.87 168.84 271.08 168.4 271.28 167.97C271.494 167.565 271.771 167.197 272.1 166.88C272.241 166.737 272.403 166.615 272.58 166.52Z" fill="#F2A181"/>
<path d="M271.68 165.75C271.578 165.921 271.464 166.084 271.34 166.24C271.24 166.38 271.09 166.53 270.98 166.71C270.87 166.89 270.8 167.12 270.71 167.32C270.53 167.75 270.37 168.19 270.24 168.52C270.11 168.85 270.03 169.07 270.03 169.07C270.035 168.872 270.055 168.675 270.09 168.48C270.169 168.048 270.304 167.628 270.49 167.23C270.587 167.013 270.704 166.805 270.84 166.61C270.97 166.454 271.11 166.307 271.26 166.17C271.409 166.04 271.55 165.899 271.68 165.75Z" fill="#F2A181"/>
<path d="M282.54 114.1C281.99 113.77 281.54 113.43 281.2 113.96C281.01 114.25 280.89 114.64 280.56 114.73C280.392 114.759 280.219 114.721 280.078 114.624C279.938 114.526 279.842 114.378 279.81 114.21C279.767 113.871 279.812 113.527 279.94 113.21C280.16 112.49 280.38 111.77 280.61 111.05C280.907 110.369 280.96 109.606 280.76 108.89C280.608 108.546 280.374 108.244 280.08 108.01C279.115 107.266 277.975 106.781 276.77 106.6C275.565 106.415 274.37 106.168 273.19 105.86C272.696 105.725 272.234 105.494 271.83 105.18C271.52 104.903 271.271 104.564 271.099 104.185C270.927 103.806 270.835 103.396 270.83 102.98C270.839 102.15 271.082 101.339 271.53 100.64C271.622 100.92 271.739 101.191 271.88 101.45C272.03 101.078 272.251 100.738 272.53 100.45C272.88 102.38 281.03 101.74 282.93 102.59C284.25 103.18 285.34 103.59 285.3 105.71C285.357 105.843 285.446 105.96 285.56 106.05C286.142 106.608 286.604 107.279 286.917 108.022C287.23 108.765 287.387 109.564 287.38 110.37C287.56 112.74 286.18 115.31 284.83 117.27C284.572 117.727 284.233 118.134 283.83 118.47C283.275 118.842 282.602 118.995 281.94 118.9C281.35 118.79 280.19 118.84 280.18 118.24C280.18 117.81 281.09 117.05 281.34 116.7" fill="#3B2E7A"/>
<path d="M280.41 116.34C280.386 116.462 280.387 116.588 280.413 116.71C280.439 116.832 280.489 116.948 280.56 117.05C280.694 117.171 280.86 117.248 281.039 117.273C281.217 117.298 281.399 117.269 281.56 117.19C281.982 117.028 282.354 116.758 282.639 116.407C282.923 116.056 283.11 115.636 283.18 115.19C283.38 114.19 282.82 113.14 281.88 113.41C281.611 113.514 281.381 113.701 281.223 113.943C281.065 114.185 280.987 114.471 281 114.76" fill="#FFBE9D"/>
<path d="M272.9 119.5L275.52 119.98C275.168 120.316 274.752 120.577 274.297 120.749C273.841 120.921 273.356 120.999 272.87 120.98" fill="#F2A181"/>
<g opacity="0.3">
<path d="M67.7201 74.7L71.2201 76.46L69.4701 72.16" fill="#3939D3"/>
<path d="M56.8601 69.2C56.7781 70.6807 57.1422 72.152 57.9054 73.4235C58.6686 74.695 59.7957 75.7082 61.1411 76.3322C62.4864 76.9562 63.988 77.1621 65.4516 76.9234C66.9153 76.6846 68.2736 76.0122 69.3509 74.9931C70.4283 73.974 71.175 72.6551 71.4946 71.207C71.8142 69.7589 71.692 68.2482 71.1437 66.8703C70.5954 65.4924 69.6463 64.3107 68.4191 63.4781C67.1919 62.6455 65.7431 62.2003 64.2601 62.2C63.3145 62.1734 62.3729 62.3333 61.4892 62.6708C60.6054 63.0082 59.7968 63.5165 59.1096 64.1666C58.4224 64.8167 57.87 65.5958 57.484 66.4595C57.098 67.3231 56.886 68.2544 56.8601 69.2Z" fill="#3939D3"/>
<path d="M62.4502 66.91V71.91C62.4484 72.0021 62.4712 72.093 62.5161 72.1734C62.5611 72.2538 62.6266 72.3208 62.7059 72.3676C62.7852 72.4144 62.8756 72.4393 62.9677 72.4397C63.0598 72.4401 63.1504 72.4161 63.2302 72.37L67.5601 69.87C67.6389 69.823 67.704 69.7563 67.7493 69.6766C67.7946 69.5968 67.8184 69.5067 67.8184 69.415C67.8184 69.3233 67.7946 69.2332 67.7493 69.1534C67.704 69.0737 67.6389 69.007 67.5601 68.96L63.2302 66.47C63.1519 66.4248 63.0631 66.4007 62.9727 66.4003C62.8823 66.3998 62.7933 66.4229 62.7146 66.4674C62.6358 66.5118 62.57 66.576 62.5236 66.6536C62.4773 66.7312 62.452 66.8196 62.4502 66.91Z" fill="#FEFEFE"/>
</g>
<g opacity="0.3">
<path d="M309.92 127.8L306.42 129.56L308.17 125.26" fill="#3939D3"/>
<path d="M320.78 122.31C320.862 123.791 320.498 125.262 319.735 126.533C318.972 127.805 317.844 128.818 316.499 129.442C315.154 130.066 313.652 130.272 312.189 130.033C310.725 129.795 309.367 129.122 308.289 128.103C307.212 127.084 306.465 125.765 306.146 124.317C305.826 122.869 305.948 121.358 306.497 119.98C307.045 118.602 307.994 117.421 309.221 116.588C310.448 115.755 311.897 115.31 313.38 115.31C314.326 115.283 315.267 115.443 316.151 115.781C317.035 116.118 317.843 116.626 318.531 117.277C319.218 117.927 319.77 118.706 320.156 119.569C320.542 120.433 320.754 121.364 320.78 122.31Z" fill="#3939D3"/>
<path d="M312.06 125.65C313.67 125.65 315.31 125.7 316.79 125.65C317.26 125.65 317.66 124.92 317.09 124.65C317.342 124.574 317.554 124.401 317.68 124.17C317.706 124.111 317.718 124.046 317.718 123.982C317.718 123.917 317.704 123.853 317.678 123.794C317.651 123.735 317.613 123.682 317.565 123.638C317.517 123.594 317.461 123.561 317.4 123.54C317.96 123.67 318.18 122.84 317.74 122.54C317.976 122.362 318.142 122.107 318.21 121.82C318.238 121.677 318.22 121.528 318.159 121.395C318.098 121.263 317.997 121.152 317.87 121.08C317.687 121.004 317.488 120.973 317.29 120.99H315.29C315.551 120.006 315.445 118.961 314.99 118.05C314.83 117.78 314.4 117.47 314.06 117.67C313.72 117.87 313.82 118.33 313.84 118.67C313.857 119.3 313.694 119.921 313.37 120.462C313.045 121.002 312.574 121.439 312.01 121.72C312.01 121.72 312.08 124.31 312.06 125.65Z" fill="#FEFEFE"/>
<path d="M311.48 121.69H309.04V125.65H311.48V121.69Z" fill="#FEFEFE"/>
</g>
<g opacity="0.3">
<path d="M197.92 67.1899L200.48 64.4299L196.98 65.1199" fill="#3939D3"/>
<path d="M188.46 67.83C188.398 68.9036 188.66 69.971 189.211 70.8942C189.763 71.8173 190.579 72.5536 191.553 73.0077C192.528 73.4618 193.617 73.6128 194.678 73.4411C195.74 73.2695 196.726 72.7831 197.507 72.0449C198.289 71.3067 198.832 70.3508 199.064 69.3008C199.297 68.2509 199.209 67.1554 198.811 66.1561C198.414 65.1569 197.726 64.2999 196.836 63.6962C195.946 63.0924 194.895 62.7698 193.82 62.77C192.439 62.7323 191.099 63.2438 190.094 64.1923C189.09 65.1408 188.502 66.4489 188.46 67.83Z" fill="#3939D3"/>
<path d="M192.8 70.26C193.85 70.26 194.92 70.26 195.89 70.26C196.2 70.26 196.47 69.73 196.09 69.57C196.258 69.5048 196.397 69.3803 196.48 69.22C196.498 69.1774 196.507 69.1316 196.508 69.0853C196.508 69.039 196.499 68.9931 196.481 68.9504C196.463 68.9076 196.437 68.8687 196.405 68.8361C196.372 68.8034 196.333 68.7775 196.29 68.76C196.66 68.86 196.8 68.25 196.52 68.05C196.676 67.9182 196.785 67.7392 196.83 67.54C196.849 67.4373 196.838 67.3313 196.797 67.2353C196.756 67.1392 196.687 67.0574 196.6 67C196.481 66.9464 196.351 66.9223 196.22 66.93H194.9C195.076 66.2187 195.009 65.469 194.71 64.8C194.6 64.61 194.32 64.38 194.1 64.53C193.88 64.68 193.95 65.01 193.96 65.22C193.976 65.6621 193.874 66.1004 193.662 66.4892C193.451 66.8779 193.14 67.2028 192.76 67.43C192.76 67.43 192.81 69.29 192.8 70.26Z" fill="#FEFEFE"/>
<path d="M192.42 67.38H190.82V70.25H192.42V67.38Z" fill="#FEFEFE"/>
</g>
<g opacity="0.3">
<path d="M222.91 30.1699C224.144 28.6131 224.745 26.6483 224.593 24.6678C224.441 22.6874 223.548 20.837 222.092 19.486C220.636 18.1351 218.724 17.3831 216.738 17.3801C214.751 17.3772 212.837 18.1235 211.377 19.4701C209.917 20.8166 209.018 22.6644 208.861 24.6444C208.703 26.6244 209.298 28.591 210.527 30.1515C211.756 31.712 213.528 32.7516 215.49 33.0627C217.452 33.3739 219.459 32.9336 221.11 31.8299L224.17 33.46L222.91 30.1699Z" fill="#3939D3"/>
<path d="M213.38 23.08C213.559 22.8992 213.773 22.7557 214.008 22.6577C214.243 22.5598 214.495 22.5094 214.75 22.5094C215.005 22.5094 215.257 22.5598 215.492 22.6577C215.727 22.7557 215.941 22.8992 216.12 23.08L216.61 23.58L217.11 23.08C217.475 22.7193 217.968 22.5182 218.481 22.521C218.994 22.5239 219.484 22.7303 219.845 23.095C220.206 23.4597 220.407 23.9527 220.404 24.4656C220.401 24.9785 220.195 25.4693 219.83 25.83L218 27.72C217.708 27.9997 217.339 28.1845 216.94 28.25C216.636 28.2919 216.326 28.2632 216.035 28.1661C215.743 28.0689 215.478 27.906 215.26 27.69L213.41 25.8C213.049 25.4411 212.844 24.9549 212.838 24.4461C212.833 23.9373 213.027 23.4467 213.38 23.08Z" fill="white"/>
</g>
</svg>
